<mxfile host="app.diagrams.net" modified="2024-04-22T15:45:16.992Z" agent="Mozilla/5.0 (Windows NT 10.0; Win64; x64) AppleWebKit/537.36 (KHTML, like Gecko) Chrome/123.0.0.0 Safari/537.36" etag="qVDnE2FHkXL4zVo0lLpY" version="24.2.1" type="device">
  <diagram name="Page-1" id="H2FOLK643TPE5QBh98ee">
    <mxGraphModel dx="3148" dy="2738" grid="1" gridSize="10" guides="1" tooltips="1" connect="1" arrows="1" fold="1" page="1" pageScale="1" pageWidth="850" pageHeight="1100" math="0" shadow="0">
      <root>
        <mxCell id="0" />
        <mxCell id="1" parent="0" />
        <mxCell id="rkN8ecLvOj-APzGdif4w-2" value="" style="shape=image;verticalLabelPosition=bottom;labelBackgroundColor=default;verticalAlign=top;aspect=fixed;imageAspect=0;image=data:image/png,iVBORw0KGgoAAAANSUhEUgAAAMwAAAHXCAYAAADwRLUeAAAgAElEQVR4Ae2dfXBUVZr/b1lTW9bW1pZb1tbuzj+rs1u7bm3VjM4sugM4gG5Wf/5WfjLqqjgqgrwpskN0RHfwDXAABaLAaJCXEeSdAJORzCgRBJSIiCQkIAIJ5P2dvKc73QG+v3rOvee+9b2d7k53cvv2k6qnOrl933LO8znf55x7znMV8A+XAJdAzCWgxLwn78glwCUABoadgEsgjhJgYOIoLN6VS4CBYR/gEoijBBiYOAqLd+USYGDYB7gE4igBBiaOwuJduQQYGPYBLoE4SoCBiaOweFcuAQaGfYBLII4SYGDiKCzelUsg6cA0NDQgLy8Pc+fORXZ2NiZOnIg77riDjctgSHyA/I38jmzLli2oqqpKKuVJA+b8+fMCErrhlStXoqioCMePH0dNVTl6OupMVo+eDjdrQE+HZp0N6HGw3s5GRLcm9Ha5WTN6u5wt0NWCQHc0a0Wg280uIdDjbsGeNrhbO4K90awDwd4oFuhAMNCpW1+gE1brQl/AxYLd6ItqPegLGhYK9kBYXw9Cfb0DWAChPgcLBRAKBS0WDgURaX0Ih2wW7kNYtxDC4UhraKgXfke+t3r1akyaNAnTpk1DSUlJUsBJCjAffPABpk6dKiDpaqtGS1URak/tQnXpVlSXbtNsO6rLtqOmbAdqynai5hRZnjDat/Y02W7N9qD22z2o+/b3qp3JR51m9Wf+gPrvyD7SbC/qz+5Fw9kCzf6IhnNkf0LjuY/ReJ7sE832obF8H5rKCzX7FE0VZPvRXHEAzRfIPtPsIJovHkTLxUOaHUZLJdnnwlqrvkBr1RHNitBaXYRL1V9qdhSXasi+EtZWcwxttV9rdhxtdcfRXveNZifQXk9WLKyjvgQdDWQnVWssRYewMnQ0lqGz6ZRmp9HZdBqdzWTfqtZyBl0t32l2Fl2tZOeEdbeeR/clsnLNKtDTdkGzi+hpJ6sU1ttehd4OsmrNatDbWYNAZy0CnXUIdJHVCwt2NSDYTdaoWROCPU3o62lWrbcFfb2twkK9lxAKkLVp1o5QsB3hYIdhfZ0I93Wiv68L/SGybs160B/uweVwr2YBXO4nC+JKfx+uXCYLaRbGlSthXLncj/7+MM6cOYM5c+ZgwYIFCIVCgwJnUMB0d3cLVVm/fr1o4ZoqDqDq5BZh1ScJFgaGoGFghgeYq1f6QXblymUBTmFhIWbNmgXy20R/BgUMxYmHDh1CR/M5oRpVJzczMEJlWGG8oDASmKtXLuPqVYKmX6gNQZOo0iQMzJo1a7Bp0yYBS1XJJlSVECwMjBqWMTBeBObq1StCbUhpqF+TyE9CwFAHn/oswd5O0SdhYLgP48U+jF1hCBgyUpp58+bh+9//Pl599dW4uEkIGArFaBSisfxTqLCwwnCnf2g7/f3hAAKBAILBgGun3w0YgubChQu4++67cc011+Cmm26KGZq4gaFxbRqq67p0EZXFHzIwYqSMFWYoFaY/3Ctgoc57Tw8NewccR8ncgAGu4sqVK3jhhRdw/fXXQ1EUXHfddTFBEzcwNIRMo2JNFw4yMDysjKEeViZYent7cfHiRTFMTM9aurq6NGisw8rRgLl69SoKCgowYsQIAQxBc8MNNwwITdzA0BN8eihJHXxWGH4OM5TAhEM9Oiwvvvgi7rrrLtx///14//330dHRIcKzy+KZjPocJhowREbFuZPIysrSgSFo7rvvvqjQxA0MjS5Qp7+yeGOMwLyC6Yoibmr6euuDy6Pzb1FvdtRMHB2KB5ebHjQK52fZ+Kbc/uAyB09r9/r0Fn5w6a0Hl4ayECwPPPAA3nnnHaEyDz74IGjUtq2tTe3TXI4NmOb68xHAEDTRfqJ/63Dk+PHj0dnZmZbA7H5KBZcKRVFGIOdQCoApegnj6Pxj/hclqX7S/8183EnXGrcAp+hpv2+f9FuVhWDZsGEDGhsbxXMVeoL/8MMPC2haW1sRDAZx+XJIPLRUVUZ9DiNHyagPQz8dzWfF/DbVHwzfoMEAt5+4gaGJlDQsl34K8xZmClB+gnE/Uwtn3G822abGDF5hSt68TVWxIQDmVM4o9Vq+BqZHdPCpzyKVhWA5ffq0GBomlSkrK8PChQvFRN+1a9eipaVFV5pEgLn22mvdeIk/L1nKgfndfUbYJBx8Anaa5pLlTTZaAmoZZm6Uc8kWaUAomLlpsfr76F/iuJxLtukB9bw/m4NvZGhGYZllLpkZmO3I0cCi64xbvMOYS7btEds9Por86iLkT7femzjurXy01byHWeJ/UTBrx2r197Evo7TuG3w0w37MSKz42jqXrGz5SOv1nl6PvU/bj1NwZ85+380lo6FjGg0jFZHKQrA899xzoGjnoYcewooVK1BcXIw33ngDTzzxBHbu3CkgC/UFNZWJT2Go3tx+3L9xOSKlwETAQk5hALPTBgv9Y2QETcNZAxi5XTEBI8OxsaQqh7LVsInCssPmyZcGMPo5tGvQ389sO4yWCFjoHmIHRj+vAGYvVoyNdHxFeQJ7tcmXe2c6fJ9BwNBzFho6XrduHTZu3IhTp04JWH7xi1+IbcuWLcMjjzwioKFng7QfPcmnsCwU6vM3MMYgwDM4ap+tvH8Wxgrn/TGW7VdnKx9b+GO15Z2yyArM6P/B15bZykY4tvwQzVbepKvHuEUUlsnZyiZgpuZos5XfxjMSmmnv4MSSW9VrjpmLYodhZeeQzFAYZczLOOk6W3kNntWu9eyuk+j4+jW1j6IouHP5J9ps5X1YmbNezFTOjJCsW6gFDSWbYdm1a5fYXltbi+XLl+PRRx8Vy0rob1IlAxaagOk3hXlyvjq9P0JhJmAnTfGnkGzDBGtYIp2YPkfPxtcmhZm5yTa9X4ZjyoPYrU3v/+Y32vi7CMsigTGPkp1YrEEy7R0HhZmI/CrjweVAwMzaYZ3eX7rUFm6Zgdn1hPY/T8Lexsjp/ZkAjBxKJlhohgkpi4SF1IespqZGQPPYY49h1apV4m9SGJren0gfhqIAtx/3b1yOiD8kW4k3R6phxZjXV1nWw+x4Ugs3JDBiPcx8zDDDoNyCpfvz8ZVUE2UC8hzXwxghmR0YGY7p4ZDl/BSWRQdmz1TtPgkYsR5mhaE64ly34e0idT1MXMDsfFxvBO5cVoD2eqvClC3TYBr7GsoyFBhzH4ZUZPfu3UJB+oK9Yj1MOBwQDy1pBkpOTg6eeuqpdO/DbMP2STIOvxc75AKyfTMwRnPcGeudFpAt1MGZscGqMGMXrtUXkB1b+HMsO2Dtw1iBWaIPBjgDo0CZulxbQBY9JBu3hDr+5gVkq3RwntkePzClS3+qAjPzfXUB2bFX9BCMQzJ1AVkw0CP6MNu2bbPCEjYWkPWHgwKayspK0H6HDx8WykMrMtNQYbah+uNpOhwRTksPLbUVl3ofxqIAqsLUnVmLpaMleObPH0cHRg/HfoLlB60rLvfoz2X+G3vEiksTMJZ7oOs9gj2Vh40+jOV7Q2EubX9UVw36X8dFjJIZIZkOjOVc6v8mgGk4CbdOv1htuedJy7X8OEpGKy5JTdSJlgSG84rL/n76LqjtFxBLmVVY0q4PI5coG0/8dWiefN2yRDkSmFuw9FOtD6MNLduHlZXJi7Qlyk4h2QYsl5CNnoPj563ANMnhZUXB05tpebIBzNNbjN8V5VbkfKEuUdY7/bqT34a3jxh9GFoPYx5ejgZMe515lGwkVhyzhmRimXJjaQQ0d+bsU5cnN522DC/7FRiChvID9PUFoi5RpoeV1NmnXAC0RDnNgeE1/eq6fkNh1HX9vKY/VWv6GZgz+eAkGJwEQ02EYfRh3JJgMDAMDGeNiSNrDAPDwDAwDEyeyGHGeck4L5noyyQxLxkrDCsMKwwrDCsMZ75MTeZLVhhWGFYYVhhWGFYYVhhwbmVORi6yXw5jMnKfhmSvY4YyHjuGIgmGfWpMRBIMzt5PGfz9kr0/zYGxzyUbjx3idRcMDIdkHJJZQ7J1/wVF+RHe/MSUZmnfDEyf/x5qTjEwDAwDYwKGlOVHePNjt8mXVmCsM5ZNKy7P5MOypn/yG/oLlfKmmKb7T1nML1QSL1XiFyqlZ0hG6jJyGopKYwEmF289+TSOnlbfQEaAjF2wxliiPHoWjtnfQLbx59oSZX4DmX/zktFbyOJ/A1n6AjPpFVTHBIztlX0fTIAyeaEKjEiCMQF5dmD2z8ZY5efYxa/s83EiPwbG9I5La0hWa0+EIYGxJMKgdf2md1ySyogFXfdj11l+x6X6nksOydJTYUrj6MMQLKOMkKzOrDDaikuxHmbjBCijn8UxAY1M5FeAho33QxEplmxZY/ilsMjEl8KmKTDbUPTaj2IaJRMdfpFBxujD6CGZGRgKz5yAOTAbYxkYfotyjMnI3XIrU7Ti9uP+jcsR8adZ0tb0r7vXkrBBGTUDRyOew+TirVHGiNeMyaY+jCUvGSXz00IyPRyj4yghBodkHJLFlr3f28C4dvp5Lhk/h+HnMKbnMDJrjNuwMgPDwDAwDEwNT77kyZeAeAFNfO+HYYVpqzkGNcXS12ir5TRLoUAbVGtHKNgOTrN0cgsrDCsMWGFYYWy5lfmlsEP5Utj+cE/UzJdXLsf+FmUaBOZRMjE9hoeVeViZh5XV+WS8pp/X9POafh5W5mFlHlbmTj93+rnTTx2lhKfG8JN+bWiZh5V5WLlkE6pKNqPqJNkWYZw1hh9c8rAyKwwPK3fWIdBFVi+Mh5VdZinLzRySmd9xyc9hGBhJhssnA8PAsMK4wOG0mYFhYBgYJzJctjEwDAwD4wKH02YGhoFhYJzIcNnGwDAwDIwLHE6bGRgGhoFxIsNlGwPDwDAwLnA4bWZgGBgGxokMl20MDAPDwLjA4bSZgWFgGBgnMly2ETChUAi1Z/4orO67P0G1j1F3luwTYfVnP0H9ObJ9mhWi/hzZp6qd/xT15/cLazh/AA3lZJ8ZVvEZGisOanYIjRWqNVUcRtMFs32OpotkX2h2BE2VqjVXFkG1L9FcSXYUzVVH0aLbV2ipJjuG1uqv0VpjtuNorSH7RrMTaK017FJdMS7VlWh2EpfqT6JNt1K01ZOVCWuvP4X2Bmmn0d5I9q1mZ9DeZFhH03dQ7Sw6ms6io/mcxTpbzkO1cnS2lKOzlaxCt67WC1DtIroukVUa1laJrrYqzarR3V5js1p0t9eip70OPR1k9YZ11qO3swG9nY3o7SJrslkzervIWtDb3YJAd6tqPa0I9FwSFuxpQ7CXrN1ifb0d0C3QiT5hXegLmq0bfX3dCPX1aNaLUJ9q4b4AwiGyoGZ9CIf70K9bCP39ZGHN+kGJXDpaLorZ92pebiOBZNIzX3Z2duLbb79l4zJIax9obW0dGmDC4TAqizeycRmktQ+QH1PElHKFYWC4sfBDg8nAcIuf1i3+UEPIwDAwDEwcPsDAxFFYQ92a8fW8F8YyMAwMK0wcPsDAxFFY3OJ7r8Uf6jphYBgYVpg4fCBjgNn2uPWpLI2jT1uTTi1mDpaMVKCMnIIjcVTwULfAfr9eZgHz+EtGa1owBWO8DM2aexgODzYMmQtM8UYceeWH3nVKBsZo3DwETloBc+7Y+oQLUYRkZoWxAKOGO2NeeUkNe5QfYkmBGq4JqBQjnBvzSo7pHuRxObCEfA5hk+V75R5s051AnsO49hgKvUzXVMR9y/3M199ova7lvBtRSdCZzpNeIag3w+W0AebEZ+9izOgRmPLYeJPDxl6oTsAY21RnVEygUCyuOrnZuV/CNEWBAY08ztwf0raZ4DSuY4JQh0qew4BU9AMiFEbdz7i2dn+m61gUU4ScpnMWTMGStOqzxV63Q9lvSgtgJCw33ngjJtx7R3KAEa2vdKhIJ6+0O5xUBHGchMjhONrPvI84j9xfOgGBF+Xa8hw6VHScDZiBzuv4vbw+fyYKmeeBMcMyaGBM4YlVTWzOKB3WHuLQdgtIDsfZ9xHw2EIs7T7UEMnlHHRcNGBiPC+FZGZVStRR+Di1kfE0MHZYBg2MKXyxOoCD05pVgiCQFjMwmqq4nUeez64ccntMwNiVy3Sf8jzFahiZfsPoTv/L8G/zLDBOsAwpMBYwTBVlcWQH0MhRzfu4nUd36BjOIfa17TfgeU33LAc4XBsM675646DfI38vy8SzwNw//g4QIHZLWh/G4gw2Z9S+E511S1ikttbGaJN6nDW8sw8MaJ1zy3lysORx+QDS+dqWfpATMHJQwu28a+6xPJi1DzxIB+DP+BoDzwKzY/3LeP3FyRH2x+1vGOGRxemj/+PRHcbFaaVTmvo+Bix0PXmcHBJW+yqRfQYJltGXMc4jz2EdLpbnFsPCQhmc9otyXqFAxvWs/aHoZcUQuZePZ4FJj0pzcmL3wk6P/4nvP1o9MTBxqFRkQTIwkWXib+AYGAYmoRA300CR/y8DMyhg/N2aSifhT6OeGRgGhhUmDh9gYOIoLG5pjZY2U8uCgWFgWGHi8AEGJo7CytRWlf9vQ1kZGAaGFSYOH2Bg4igsbmmNljZTy4KBYWBYYeLwgSEFhi7GxmWQ7j4wZNn7072g+P4ZdvKBjAXmwoUL2Lx5MxYvXox33nkHp06dYgXkKGBAH8hIYHbv3o2bb74ZP/jBD4TNmzcPgUBgwMJilWGVyThgDh48qINCwMyePZthYWWJubHMOGDGjx+vAzN9+nS0tbVFFNZ3330XsY3VhdUl4/owDQ0NOiykLqQ2dhCoPzN//vyI7fb9nP4uzDatcpQrNbNyUZ6yFrwcuVkKFP0a6t9ZueUJ3b/T/8TbrA1FRinMiRMnLMD867/+K44cOaI7F8FCID3//PP6tngcRgCTXZjQsfFcx31fBsa9bKyOn+h+GQVMV1cX/umf/ikCmqNHj4qRMjkI8P777yfk9AxMcpwyUWceiuMyChgaOh47dqwFGILkH//xH/Vt9DspUSKFHx0Y2foXqmGUCNmykFseRrg8F1kyhFOyUWgO4SzfKVAsCibPKUMw+9/+d+BE6mkwx2QMMATLc889h1WrVuH222/XAZGqIj/p+0QLNBZgFEWDJBxGeW4WlKwsZEXpg5TnZqtQCYgKka0oyC6UINgBsf8t9+PPROvUflxGACNh+fDDD0Edf3pgOXr0aAs0t956K7Zv354wLFSwAhhdKdQBAKMD7uDMmnoYAEiI3AcK6Bru53S4hlmt+PdB1S/Vse+BscOSn5+PZ599FkVFRWhpaQH1X2gfe0uSyN+xKIzh7NTqk2IYiiOuWZhtGvVSlcEOonEOOyD2v1lZEqnHaMf4Ghg7LHv27NFhiVYoiX6XfGDUEMzcb2GFGd5GwLfA2GGhcIz6MKQsiQIx0HFJB4bUxjYIwMAwMEl3YDdYkhV6uYGTdGBEH8cUsgmAuA/jVv5Dsd13CnP+/HmhJLKDL5Ul1bBQZQlgbJ1+QyGc+hcD92HESJo8Z3ahuAb3YYZPZXwHDAGyevVqMRo2lLAMRevG1xg+UGTZ+w4YGgWj6frvvfeeUJqhUBZZmPw5/A6d6jrwHTCdnZ0gaNauXQuedex/B041IPbz+w4Y+z/IfzM0yfQBBoaffid9lDKZDuq1czEwDAwDE4cPMDBxFJbXWju+n6EPNxkYBoYVJg4fyFhgOM3S0LfOflDEjASG0ywxLInCm3HAcJolhiVRWOi4jAOG0ywxMAxMjJ224UizZF5NOZiK8tKx1iUGmQVgRinMkKdZcliC7CXHT/ReGJjI/HNw+VFctrtuJiITrZhkHzccaZbURBfua/ST/T8OxfkYmAwBhmYuD3WaJQswUVMmhRHWFogp2voXPZxz2B7htA5qZt/HsrZGMS9Eo7BKrteRaaCMhWt0HnlPtFzaft6hgNQr18iYkIxgGY40S8LZtFxiUVMm2VdXlucil9IpuW0niPT0TAZs9sVlEjrV6c05z9R8Afb9zWmgyEnFcVGvw30Yakzcfty/cTnCCyGZhEWuwkxpmiVzoj2hDEZLbW8lLS21AMPs0JojRt1unJvOlZ1tgsh8nB06OUgi7k9eU1UYc8KNCFi14yz3Lc+VIZ++Vxg7LClPsySXE4tPw6ElLKLFNu0T2cI7h0rUihn7GiGUqiCkFuT48lNTHAmvBQyTIlhAkiGZzKIpVUsCZRzHwJhCVK0uXfQCaaUwdliGN82SGgKZW3Bnx9P2s2S4JGeN3C76JAQFASHgUJ2eILKcm4FJ2sCTbxXGDotc3z9saZYcnNbi1LaQRoch2nY6Z1YuCnOz9PSxdFxWLnXcTepmURJDKQRoev/EQWEcj3PYz3aPUk39+OlLYNxgoe2prEQCwKwglmvZnU8AZAqzCrN1p6fj9HO5bRdOKlXHDof5nTEqIOJ8OhyGYslBAWOUzBSSaSNn5sEFOdJmDQ9NEPocHt8BM+xplmS/wcFxpLOJIVr78KwAyhQbS+d2266d3w0EJ4cW+5r6TwYs5PBuyqFul8PKdF46j9P5LQ2Ew//vh+99BwynWcqc1n44APQdMJxmiYFJJUi+A4bTLDEwDIxP4+FUViyfOzUNh+8Uhh0lNY7C5aqWKwPD6pXSoXa/gcbAMDAMTBw+wMDEUVh+ay35/4k/fM1YYDjNUvzOwoBlYBIMqnROs8SwJAp/xikMp1liWBKFhY7LOGA4zRIDw8DE2HEfjjRL8U9SdJsE6e7oYlJllEmf5CCZPGFyMIDYj80ohRmuNEvxQcPA2J3US39nFDDDlmZpgNbf6hAMjLU83JV1OPbLKGBoAdlQp1lyCpcs62Jc1urbVUmcR1/LYl1n73QNy/72tTcxhrDD4ZBev2bGACNXYa5atQq33347fvCDHzgafZ9opUU4rn2VpVxJKRJWyJZTXTVpABKpMPbzCuDkAjN5TpOKif1N38t8Z8Y15LX5M966zghgJCxDkmZJV4HIZcJuaYtUh5aqYQNGQCe/kw5OkBnLki1AOUBKTkH7MDCy/BL/9D0wdlhSnmZJtvTa0mLLMmCHRBiihbM4uQ0Ybe2/XCJs/pTntgDjcg0GJnFIzCrka2DssAx5miW789r/ln2JAYGxK4y18hkYa3mYHTzZv/sWGDssw5NmyaYWFjBMlUwg6X2OGI+RsNn7MI7XsJ3TdGyyHcrv5/MlMG6w0PZUVqilpZdOKVTF1t/Q4SBo1E6/DK+csreI81qOKUdutvFGAOt1VTgMAMOQo3LchzE1UrJ+4vz0HTDeS7MU6cDCwU2DAwYsVKFOaqCdw+UYKzDGOWR/h0ChfRgYBiZCMTjN0uCdIpUqnO7n9p3CcJolBiaVUPoOGE6zxMAwMHF2zFJZYHzuzAbSdwrDDp3ZDp3q+mdgWL0iBk5S7XTpfH4GhoFhYOLwAQYmjsJK55aR7z05oWrGAsNplpLjQJkGYkYCw2mWGJZEQc84YDjNEsOSKCx0XMYBw2mWGBgGJsaOe2rTLDlNmtSc03HKfXIcN3LiZeR5eeJlZJkkCk1GKUxq0ywxMIk6YTodl1HApDbNEgOTTo6f6L1mFDC0gCx1aZbiAEYsKjNeMW5eDyNCLH3di3lpsjx/IXKz6Fh1UZpTSGY5B6dYSuqD2YwBRq7CTF2aJenQ5ZEVZO7DmH+nvld5LnIL1Rjb7vzWdErq+SUosoW0HyP+Nq/O1ODkxWPJ6cdkBDASltSmWYoHGLNyaBUpQLJvN6dT0oCRWWm0gQ4LMHYYTfswMAxMZEvuMFpmhyV1aZZiBEZbgkzLhy1ObAvT5PJi+lRDNufzW4AR57BDxznJpBon49PXCmOHZSjSLFkgkAC7qofajxFAuDi7UckMjFEWyVGLRM7nW2DssAxFmiVrn8NUqQSDuV8hQQprGV0ozHIJp4xKjQEYx3M4H2ec13Sfpvvi753LxZfAuMFC21PrCPY8yWqnPksPq8KgtLARo2JavySiw07hm55OydnxLSGZDPdMcHKKJWfHT9QPfAfMcKZZUitBhSayD6JVnFABY0jZqjwqFM7HxgIMXcN6DgoRCSrHUJEVJe4G1HfAcJql5LaoibbEfj3Od8BwmiUGJpWw+g4YTrPEwDAwHGvHHWun0mky+dy+U5hMrkz+31OvrgwMqxerVxw+wMDEUVjcgqe+Bfd6GTMwDAwrTBw+kLHAcJolVotE1CwjgeE0SwxLIrDQMRkHDKdZYlgShSUjgeE0SwwMAxNjp82PaZYGU/l8bPyNR0aFZH5Ms8ROH7/TD6bMMgoYP6ZZGkzl87Hxw5ZRwNACMn+lWTLWyIiFZFp6poi1L/Y1OJZEGvIcMn2TkcJJXQUq1+445wow1u5Efu9HIDMGGLkK019plozFYvoqTpEbQM1ZJh22PDcbueWyNVUXuOn76wvOjGPUpdZZyNJXbkqojBRS1pWe2lJrfX95Lf99ZgQwEhb/pVnSgHFQDAOISKe1rsCMhEEqi/kclnwFQrHsimJOCRV5TQlvun/6Hhg7LP5Ks+Tg7Jpi2MMyc8hGYZTxvdM5HJzfnMhDqJgM1ayfZsjSHQ6n+/c1MHZY/JdmycnZ7du0HAMmFRpQYcKxAGNXGP+qihkc3wJjh8WfaZbscJDT2rYJNbA696CBcUznxMDA4Udx2BZ1ExFpJnQofneDhban9vpqa26EO6lOs2SDQzzAtW2zO7cWThn3aNtfnGMAhQmr2TQjMt7oKaH8C4/vFCaz0iw5OXvkNpmbTAwBR2Tzj9w/PFBIZgLTGFaWKW39Cws1tr4DhtMs+dthUxshDFx2vgOG0ywNXOnD7XTpfH3fAcNplhiYVALpO2BSWVh8boaRgYlxaQDDwrCQDzAwDEyKh9r9BVrKgaEVju3t7VwpDGba+0AoFEq9wkybNg1nzpxJ+8LikMxfSpFIfba1tSErKwvmZ0/yd7en93E/6Z87dy6KiooYGFaYtPeBioqK1APzwQcfYP369WlfWIm0SHyMv1SpoKAAI0aMSK3CVFVVYdKkSQwMK0za+8ALL7yA66+/PrXAUGyXnZ2N48fhsJsAAB9RSURBVMePp32BsWL4SzHiqU8Kx+6++25cc801qQeGJkROnTqVgWGVSVsfmDdvHv76r//aERbq+Lv9uH/jdoS2fc2aNdi0aVPaFlg8rRHv6y8lKiwsxKhRo1xhSQkwxA2FZocOHWJoWGnSxgfokchdd93lGooRLDfccIOrXCSsMHTG7u5u0DAzj5r5qwX2q6KSshAs3/ve9xJSF/L5QQEjMaShZurT8PMZBseLsJGqzJkzR4Rhbp18+cDyb//2b6VbO34mBRg6Mw0EkNpMnDgRK1euFPDQSBobl8Fw+cDq1avFIxB6mv9Xf/VXUVVFAuNIiWlj0oCR56QE4Xl5eRgzZoyYp0OT29jiK4N77rkHv/3tb0GfXHbxlZ25vP7+7/8ef/7nfx4TKNE6+tK36TPpwJhPfu2118Z8s5Jw/lTw0EMPYcGCBeKTy8OaJy1V5WH222i/pxQYuvBNN93E0Gg5kmOp7L/8y7/E4sWL8c///M/ik/6O5TjeJzGwBuqz2OFJOTDygjfffDNXfAzgkLo88MADoHCCPulvhiExGKKVGzXkifwMGTCJ3FymHdPb24t3330X//AP/yCAoU/6m7bzjzdKgIHxRj2Iu9i/fz8efvhhAQspDBn9Tdv5xxslwMB4ox6EipjVRQLDKuORCtJug4HxSH04qYuEhlXGI5WU6mFl7/yb3r4Te99FgiI/WWW8U3+sMB6oi2jqIqFhlfFARbHCDH8lDKQuEhhWmeGvK7oDVphhrgdSl9mzZ+P2228f0Gg/HjEb3gpjYIa3/EGJGDZv3hxhK1asiNhG+9H+/DN8JcDADF/ZR70yzbTlH++VAAPjvToRd8TAeLNiGBhv1gsYGG9WDAPjzXphYDxaLwyMRyuGFcabFcPAeLNeWGE8Wi8MjEcrhhXGmxXDwHizXlhhPFovDIxHK4YVxpsVw8B4s15YYTxaLwyMRyuGFcabFcPAeLNeWGE8Wi8MjEcrhhXGmxXDwHizXlhhPFovDIxHK4YVxpsVw8B4s15YYTxaLwyMRyuGFcabFcPAeLNeWGE8Wi8MjEcrhhXGmxXDwHizXlhhPFovDIxHK4YVxpsVw8B4s15YYTxaLwyMRyuGFcabFcPAeLNeWGE8Wi8MjEcrhhXGmxXDwHizXlhhPFovDIxHK4YVxpsVw8B4s15YYTxaLwyMRyuGFcabFcPAeLNeWGE8Wi8MjEcrhhXGmxXDwHizXlhhPFovDIxHK4YVxpsVw8B4s15YYTxaLwyMRyuGFcabFcPAeLNeWGE8Wi8MjEcrhhXGmxXDwHizXlhhPFovDIxHK4YVxpsVw8B4s15YYTxaLwyMRyuGFcabFcPAeLNeWGE8Wi8MjEcrhhXGmxXDwHizXlhhPFovDIxHK4YVxpsVw8B4s15YYTxaLwyMRyuGFcabFcPAeLNeWGE8Wi8MjEcrhhXGmxXDwHizXlhhPFovDIxHK4YVxpsVw8B4s15YYTxaLwyMRyuGFcabFcPAeLNeWGE8Wi8MjEcrhhXGmxXDwHizXlhhPFovDIxHK4YVxpsVw8B4s15YYTxaLwyMRyuGFcabFcPAeLNeWGE8Wi8MjEcrhhXGmxXDwHizXlhhPFovSQemoaEBeXl5mDt3LrKzszFx4kTccccdbHGWwfLly7nM4iwz8jPyN/I7si1btqCqqiqp6CUNmPPnzwtI6IZXrlyJoqIiHD9+HDVV5ejpqDNZPXo63KwBPR2adTagx8F6OxsR3ZrQ2+VmzejtcrZAVwsC3dGsFYFuN7uEQI+7BXva4G7tCPZGsw4Ee6NYoAPBQKdufYFOWK0LfQEXC3ajL6r1oC9oWCjYA2F9PQj19Q5gAYT6HCwUQCgUtFg4FESk9SEcslm4D2HdQgiHI62hoV74HfkehbWTJk3CtGnTUFJSkhRwkgLMBx98gKlTpwpIutqq0VJVhNpTu1BduhXVpds0247qsu2oKduBmrKdqDlFlieM9q09TbZbsz2o/XYP6r79vWpn8lGnWf2ZP6D+O7KPNNuL+rN70XC2QLM/ouEc2Z/QeO5jNJ4n+0SzfWgs34em8kLNPkVTBdl+NFccQPMFss80O4jmiwfRcvGQZofRUkn2ubDWqi/QWnVEsyK0VhfhUvWXmh3FpRqyr4S11RxDW+3Xmh1HW91xtNd9o9kJtNeTFQvrqC9BRwPZSdUaS9EhrAwdjWXobDql2Wl0Np1GZzPZt6q1nEFXy3eanUVXK9k5Yd2t59F9iaxcswr0tF3Q7CJ62skqhfW2V6G3g6xasxr0dtYg0FmLQGcdAl1k9cKCXQ0IdpM1ataEYE8T+nqaVettQV9vq7BQ7yWEAmRtmrUjFGxHONhhWF8nwn2d6O/rQn+IrFuzHvSHe3A53KtZAJf7yYK40t+HK5fJQpqFceVKGFcu96O/P4wzZ85gzpw5WLBgAUKh0KDAGRQw3d3dQlXWr18vWrimigOoOrlFWPVJgoWBIWgYmOEB5uqVfpBduXJZgFNYWIhZs2aB/DbRn0EBQ3HioUOH0NF8TqhG1cnNDIxQGVYYLyiMBObqlcu4epWg6RdqQ9AkqjQJA7NmzRps2rRJwFJVsglVJQQLA6OGZQyMF4G5evWKUBtSGurXJPKTEDDUwac+S7C3U/RJGBjuw3ixD2NXGAKGjJRm3rx5+P73v49XX301Lm4SAoZCMRqFaCz/FCosrDDc6R/aTn9/OIBAIIBgMODa6XcDhqC5cOEC7r77blxzzTW46aabYoYmbmBoXJuG6rouXURl8YcMjBgpY4UZSoXpD/cKWKjz3tNDw94Bx1EyN2CAq7hy5QpeeOEFXH/99VAUBdddd11M0MQNDA0h06hY04WDDAwPK2Ooh5UJlt7eXly8eFEME9Ozlq6uLg0a67ByNGCuXr2KgoICjBgxQgBD0Nxwww0DQhM3MPQEnx5KUgefFYafwwwlMOFQjw7Liy++iLvuugv3338/3n//fXR0dIjw7LJ4JqM+h4kGDJFRce4ksrKydGAImvvuuy8qNHEDQ6ML1OmvLN4YIzCvYLqiiJuavt764PLo/FvUmx01E0f5wSU/uKQHmK4PLg1lIVgeeOABvPPOO0JlHnzwQdCobVtbm9qnuRwbMM315yOAIWii/UT/1uHI8ePHo7Ozk4HhJ/1D+KTfqiwEy4YNG9DY2Cieq9AT/IcfflhA09raimAwiMuXQ+Khpaoy6nMYOUpGfRj66Wg+K+brESRmo8EAt5+4gaEJbjQsxwrDU2NoekzqQ7Ie0cGnPotUFoLl9OnTYmiYVKasrAwLFy4UEy/Xrl2LlpYWXWkSAebaa6914wXeA+Z391loV5QJ2GmaS5Y32doazNwo55ItwkytpZi5abH6++hf4jjPJUvruWQ0dEyjYaQiUlkIlueeew4U7Tz00ENYsWIFiouL8cYbb+CJJ57Azp07BWShvqCmMvEpTLSwzFvARMBCcBjA7LTBImWUoGk4awAjtysMTNpPvqTnLDR0vG7dOmzcuBGnTp0SsPziF78Q25YtW4ZHHnlEQEPPBmk/epJPYVko1OdvYIxBgGdw1D5bef8sjBUK8mMs26/OVj628MeqGk1ZZAVm9P/ga56t7JvZyqQyNJRshmXXrl1CRWpra0Frhx599FGxrIT+pv0NWGgCpt8U5sn56vT+CIWZgJ00xZ9Csg0TbKGaKTQbPRtfmxRm5iae3t/V4o/p/XIomWChGSakLBIWUh+ympoaAc1jjz2GVatWib9JYWh6fyJ9mGEOyVbizZGqc495fZVlPcyOJzWnl8CI9TDzMcMyanELlu7Px1dSTZQJyHNcD2OEZAwMrYnxBzDmPgypyO7du4WC9AV7xXqYcDggHlrSDJScnBw89dRT6d6H2Ybtk6Qa3IsdcgHZvhkYo4ExY73TArKFOjgzNlgVZuzCtfoCsmMLf45lB6x9GAbGP8AEAz2iD7Nt2zYrLGFjAVl/OCigqaysBO13+PBhoTy0IjMNFWYbqj+epsOhd8ilitBDS23Fpd6Hkd+JT1Vh6s6sxdLREjzz548ZGJ+vuCQ1IaWhMEsoi1h1aQBDKy77++m7oLZfQCxlVmFJuz6MXKJsPPHXoXnydcsS5UhgbsHST7U+jDa0bB9WViYv0pYoc0jW6eMlypQfoK8vEHWJMj2spM4+5QKgJcppDgyv6VfX9fOa/qFa08/AnMkHJ8HgJBhqIgxrSOaUBIOBYWA4a0wcWWMYGAaGgWFg8kQOM85LxnnJRH4y1+n98eclY4VhhWGFYYVhheHMl6nJfMkKwwrDCsMKwwrDCsMKA86tzMnIRfbLYUxG7tOQ7HXMUMZjByfB4CQYUZNgZNwomX0u2XjsEK+7YGA4JOOQzBqSrfsvKMqP8OYnpjRL+2Zg+vz3UHOKgWFgGBgTMKQsP8KbH7tNvrQCY52xbFpxeSYfljX9k9/QX6iUN8U03X/KYn6hknipkj8WkA3mhUrp2YchdRk5DUWlsQCTi7eefBpHT6tvICNAxi5YYyxRHj0Lx+xvINv4cyhiiTK/gczP0/v7Q5nShyFgJr2C6piAsb2y74MJUCYvVIERSTAmIM8OzP7ZGKv8HLv4lX1gYGLPrRwtkd/wrumPFxh7IgwJjCURBq3rN73jklRGrM68H7vO8jsu1fdcckiWniFZaRx9GIJllBGS1ZkVRltxKdbDbJwAZfSzOCagkYn8CtCw8X4oIsUSZ43xSxKMzOvDlG5D0Ws/immUTHT4RQYZow+jh2RmYCg8cwLmwGyMZWD4LcoxJiN3y608vCGZfO34unutecVGzcDRiOcwuXhrlDHiNWOyqQ9jyUtGyfy0kEwPx+g4SojBIRmHZLFl7/c2MK6dfp5Lxs9h+DmM6TmMzBrjNqzMwDAwDAwDU8OTL3nyJSBeQBPf+2FYYdpqjkFNsfQ12mo5zRKnWSrh147za8eH9rXjl02pYinzJadZsr/uwjys7JiMnKfG8JN+Pzzpl8PKPEqmhWUcknFIxiEZOCTjkMzxxZjxvxSWO/3c6W9FX28rQr2XEAqQtWnWjlCwHSIfGa225BWXW1FtC8kqT27Dl5+8i/fffh5f/GkVKkt3cCK/+hNieXJ7fTE66kvQ0UB2UrXGUnQIK0NHYxlnjcm0rDEXTmzB7o0L8F93/RTznn8chwtWoqYsT31ln3gDGU3xV+eS1dHr+uQr+4a90/8OnlEewZ7Kz9FS+Tlaq/i140Pz2vFuqBMwM2U9jE1hCJht617FT27+Fzww4f9g5Vu/wpE//RZVpTtRGwEMvYXMeIsyvetSzFZ2m3wp1sQMfi7ZN4tGQFEewp6LB9Fy8ZBmiQPz0XQFs3bQM5jkPofZ+7SC2XtOo9PnL1TKKGAO730bn+UvV+0Py1G4eymWL3wGo0b+GxYsmI+lS17HO4ufw9HC1R4BJgdPKw/h6akKnt7KwPR2VKO3owa9nTUIdNYi0FmHQBdZvbBgVwOC3WTc6U9Kp3/u7Icxc/J4zJz8/4RNn3Qv7vu/t2PkT29Ffn4+Cgo+wmvznsO7S59LGBj3Nf1LMFN//d9PsPzgPjSW70NT+VI8rTyIPZseFDOoxy3aguaKA2i+cADNWx6CMjVH/4xQmCNzMU6ec8yLKK46gtaqIjFKlj/dmGmtTH8Xl2ry8fYY0zblMXxUuxqz6HPn4+Lady4tAM0lK1020jSb+wnstfRhPsaKscZ57sxZj5XjjL8VZTL2ksr4+A1kGbNEeclr0/DqC4/j1ReeEDbvuccwaeL/weiRt2H79u3YsWMrXp83Bxtz5yUGjOua/g+wfLSCmZs+RuP5T9B4cA7Gjp6D4zowCpSnlqGp4lM0VezXgdlDyrLlMzRfIKW5FTlfmEMyBcqYuTih9WHypylQpq1Sgdn+KJQxL6Gk+ktcqqZ5ZMZcMmtIRsAoUGasRnvdN2ivow5/AVbMfAWlWqd/70wFdy77WOv0q7DcufwTrdO/Hitz9qGz6TQ4JKOXKgXhqyf9pZ+vRfGh91F8aA2KD6/B8f2rsebtX+Gnt92C2c8+g9/Mn4vfrfo1ThVtSAwYtzX9m2j15S9x/LwGzPkPsXz0T7D8kFSYEcg5RLCYgPn8eYyjvssFAuYgCJ5xi3eY+jC3IueIqdN/5EWMEypThNailzBOeRT5MQHzU6z4imCRwNhGyXY9AWXmOhWY46/hzrGvoawxcpSMgfEhMPZhZer0b137Cv7tln/BQ/ffjQ3vvYzSz3+HajFSZkuC8W2MnX59EZlpTT8BI0Mn0+fMTRKYB7Gn3AqM6OxTOKYB0/zFrzDuZy/ghOj4O3X6V+EZZSLytZDsEqmMuNajyI+qMI/hIwGLCZg8NUTT71kCs3uSCg8Dg/5wT9SXwl657MOpMReLt2Lv1kV44pG78du35qD48Looz2HWYOko+drxfJE9Rl/Tb8pLVn92LxpohMy8pp+AmbIEjbrCfILG87Y+jAWYrcj5mblfYPz+zFYKywiYKApTXYRLQl2+hABnzP+ipOYrXKr5CpEhmQ0YgmWsEZJ1mBWGgGGFQcb0YewKU3VyO0oOr0P+5jdQ8vl6y2vHI4eVf4+vFtwCZfQsfKU/h3lDdORnbjRljZHAWNb0qx1+vQ9D/ZhowGz+byg/ex7fCHVRQ7LmiwdxYvGtUKa+rQFDfZYV2nOYPNGhH7dkl97p14Ep+l+MswFz51t/0IaVtU6/SWFEh3/mGj23MvVh9JCscR2eVRQ8u1uGZNY+zJ05hTys7PfZytWlO3Dx5Dbx7KXm1MArLi0ZLxUFYxeu1bJefoR6PRwjRbCt6T/4S4w1hWOKpdNvDclEf2XRVi0cM4Bp+eIFjBOdfy0k2/aIEeqJDr82SqaHY3Qft+Hto0anv+3or3GnuA/TKJkJGNHpN42CPTvT1IcRT/lVaGS4NnsPvUn5NDq/ma+dl0fJeHo/T+/nqTGhLu0pPz3tz9An/TVlO1BTthM1p8jyBgzJvDM15jBaKslMo2TiGYzxHEYPyWzDyjz5kidforJ4IyqLP0SVmNrPKy55ej8/6U/Kk357p58VhheQ8fR+XkDGC8h4LpmjwHDWGO7D8ORLZzSct/KKS+7082xlZzYctzIwDAwD44iG80YGhoFhYJzZcNzKwDAwDIwjGs4bGRgGhoFxZsNxKwPDwDAwjmg4b2RgGBgGxpkNx60MDAPDwDii4byRgWFgGBhnNhy3MjAMDAPjiIbzRgaGgWFgnNlw3MrAMDAMjCMazhsZGAaGgXFmw3ErA8PAMDCOaDhvJGB6enpQWX7SxUpRWV6KKrIKJytDVYWbnUJVhWYXTqHKwaovnEZ0+xbVF93sDKovOlvNxe9QUxnNzqKm0s3OoabK3WqrzsPdylFbHc0qUFsdxWoqUFtzQbe6mguw2kXU1bhYbSXqoloV6moNq6+tgrC6KtTXVQ9gNaivc7D6GtTX11qsob4WkVaHhnqbNdShQbd6NDS4WQMaGhrQaLbGBjTq1ojGxka0tTaK5SoyuYj509n7AcXtC7ftBEwgEEBj5VdsXAZp7QPU8JM/m0GRv7v5f0LAhMNhbU0/retn4zJITx8gP2ZgGGBuxGL0AQYmxoJiRUhPRUh2vTEwDAyrSxw+wMDEUVjJbq34fOmnWgwMA8MKE4cPMDBxFBYrQvopQrLrjIFhYFhh4vCBjAFm2+P0SokfYkmBeysZyz4Dt1g5WDJSwZhXclLiiHSPqTr3wP+be9llyrEZBowC5fGXnB25YArGiPexRIcqwjHW3ANl5BQc0VspBiaijPSySX/g0gqYc8fWOzt7DBUiWubH78EY5R5sc9j/yCs/hDLyhxgzgApFOAMDk3CdRJSlQ714bZ+0AebEZ+9izOgRmPLY+IQqSA1lXnIJl17CNAJlDalMpMKooZp8f6UBnHW7VC9DYczfO4VRAlLT286c9jGfg9SR/rbsR8CazjFtTfq34l6DxHw/aQGMhOXGG2/EhHvvGAQwOaiMUISNxjYRllmBEQ5rCuNUJTKFYBHnU4EhJ9adVzi1w3ktakfQWmEQ1zaHexocOjD2+y2YgiUMTEL+YYYi2u+eB8YMS1KAKVYdU3fmYtXBxd8ODhgZwmlqJAcP3IAxQVapXcPV0WUoIoDQFMx+L9o+FoUR+xiKF62i+bvkKK+ngbHDkhxgNkKohHRos9PZnVRr0c0hj/xdB84FGB0O4ehGmCYc1wyGhIU+zdd32ccCjAYi3ZP1eslxDoYsshw9C4wTLMkCplKojBoiWRzQ7LDkwC5Oa3GkYQVGVqiqmpYw0Awi/560MM2zwNw//g4QIHYbdB9Gcx4VlClqZ1+GV3Zg7H87OV4iwLid13wux31sSmW7H4ty2r6zQM7fJQyQZ4HZsf5lvP7i5Aj74/Y3EvpnLUpCDiMcUo5saS21g5PScRHPWR63dfotnXcnp47cFnle576V+dpyVE0Pv9bcYwwsFG8UI2iuz5kYkoT8xt7QeBYY+40O9u8IYMydfelMDsDIDrvsu0SGPSoM4nvRL4qEQ55Dd3TtegKaqEPCpnNr/RTL/yGhl+cwj6jJ/4k/kwKK9L+MAUb+w/wp+z38mYgvMDDcAie1BU7ECdPpGAaGgWFg4vABBiaOwkqnlpDvNTUhJwPDwLDCxOEDDEwchcWtdmpa7XQqVwaGgWGFicMHGJg4CiudWkK+19SoIQPDwLDCxOEDDEwchcWtdmpa7XQq1yEFpru9FmxcBunsA0MKDF2Mjcsg3X1gyLL3p3tB8f0z7OQDGQXMl0VH8frUbXj50e048OlBVjxW/bh9ICOAKT1ZimUvbcUzP83DO69uwW8XbcXs23dh8S+34KuvjsVdaKw2mas2vgamqqoa772pgvLmc1uEqpw+fRpkBz87jJxXtmDWbb/H2y9vxvnz5xkcVpwBfcCXwLS3t2Pj6p2YfXseXp28BXvzPxaQSFjMn4WfHMAbz6hQvZ+zXbz8MzEFKUduloKs3PLIQi/PRZaShdzyzG2ZEytT75WXL4EhCEg55o7fHhUWCc4nf/oUv35kqziG4EqschmYxMrNe1BE+z98CQw5/erl20R/hfotrz6xFds3/x6lpWUWpdm1/Q9CXQiu5b/ejPfe2ioAi1Zg7t8xMO5lk15QRPs/fAvMmhXbxbvXT548idU52/HLO3bhpQlbsWH1TmxavwsvT1Q7/jQA8PXXx8W+dMyQKExhtiXFa3ah4VCF2TItLX1mo1DvV0ggC0Xop3CIl2AkYJR1NDDcvvM9MA0NDQKG8vJybFq7C7+6dyey78rD+nd34ttvz4jv5D5DAoy9P1Oei1wNGAFLdqHuCOW5WVCyclEuoFGBYVAG5/BuIMS6PWOAkVBsXr8LZPJv8+fQAWNWDs0BBEj27YXI1pVEA8YEVKyVzPslDzIGRlMgAmdIgAlLpbCNqNnCNHNqJzVkkyGZwyicHrYlzzEYMueyZGCSBkwYFFK5Dys7qYfaXxFACGDs+5grjYHxAsQMTBKBsfY5TM5OMOh9EdP2cBjiGAqz7H2bCNVgYBiYCKewOlOiBUQjXTREXFlZGdFXcevD1NTUDHJYme6d+hw2lREgKNBHwgqzjd/DqiopWr9EdPotYJUjN9va6XdUsBSVY6Ll7+fjfKkwNPpFc8aW/3oLdm7NF9NeZOfeDgxBlb+rADna/iXFJfooVWIVr0IT2QfRGgMNIP17OyBZ5mFlE2ha34eBSU6jmljd+ni2ck9PDz7bfwirfrMFb72wRYyMFReXiE+Chp7y79j8e/HdivlbQLMD2traBgnL8FZmok7Ax8Veb75UGLsD0IzktSu3gyZgkurkvKxC9N7Sbfji8BEEg0EGhcO6mHwgI4CRAFGotvl3u/Dh2l0YfOgVe6skr8+f6V9mGQUMO2z6O+xw1yEDw6FITKHIcDuqV67PwDAwDEwcPpByYMaPHw9a0OWVFoLvg8OywfhAyoGZNGkSKioqGJg4WrHBVCgfm7oGgR5V/Md//IdlaYZ8ngaXH8Vlu+vm7OxsHD9+nIFhYNLeB2g2yH/+53+mFpg1a9bgww8/TPvC4pY7dS13upRtYWEh/v3f/z21wJSUlGDOnDkMDCtM2vvAokWL8Hd/93epBYZitWnTpuHMmTNpX2Dp0hLyfSZfDRsbG3H33XfjmmuuST0wX3zxBebNm8fAsMqkrQ+sXLkSN954oyMs1PF3+3H/xu0IbfvLL7+MQ4cOpW2Bcaud/FY7XcqUEqlQZ99NXVICTCgU4tCMFSbtGkwaGaNniX/2Z3/mqi7XXXedq1wkrDB0RlqTMmvWLFYaBictwKF+94QJE/AXf/EXrrBEUxfy+UEBQyfo7u4GhWfz588fRFrWzA0P0iWMSef7pHVR1Ge56667cO2110aFhb6P9jNoYOTJDxw4gIkTJ4rBgIKCAh5FY9UZVtWh2Sj0nIUa8nvuuUd08KP1WQZ6wi/9PGnA0AmpX0MjaAROVlaWeFkNzdVh4zIYah8g/6OHkn/zN3+D733ve1FVRcJy3333SS5cP5MKjPkqDz/8cEw3KW+WP61r/7k8hrY8xo4da3Zf199TBoy84kAxIzvG0DoGl3dkeUtfjeUz5cDQTZDUcUVFVhSXyfCWSayqYgZpSIAxX5B+pxtl4zIYDh+w+2K8fw8LMPHeJO/PJeCVEmBgvFITfB9pUQIMTFpUE9+kV0qAgfFKTfB9pEUJMDBpUU18k14pAQbGKzXB95EWJfD/AbZBL10QVENzAAAAAElFTkSuQmCC;" vertex="1" parent="1">
          <mxGeometry x="50" y="-1040" width="204" height="471" as="geometry" />
        </mxCell>
        <mxCell id="rkN8ecLvOj-APzGdif4w-3" value="" style="shape=image;verticalLabelPosition=bottom;labelBackgroundColor=default;verticalAlign=top;aspect=fixed;imageAspect=0;image=data:image/png,iVBORw0KGgoAAAANSUhEUgAAAMwAAAFdCAYAAABPb4KgAAAgAElEQVR4Ae2deYwdxbX/r/gjQlEUEeWvJP8EFEVIiSB5Enl5LLKFNAlCwYFHohASluCw/TD8wpAfAYXlQfB7LA/8A/zCGIMfGLwM9rDkFyeQYTEkdhzjh3cM9tie8dgzY894PPtyx/b56VR1dZ+qru7bfW/fpbuPpfKd211dXV39/dQ5Vd11bgH4H7cAt0DkFihEzskZuQW4BYCBYRFwC8RoAQYmRmNxVm4BBoY1wC0QowUYmBiNxVm5BRgY1gC3QIwWYGBiNBZn5RZgYFgD3AIxWoCBidFYnJVbgIFhDXALxGgBBiZGY3FWboHEgent7YXVq1fDb37zG2huboYrr7wSLrzwQk7cBjXRAOoNdYdp+fLl0NXVlSjliQGzZ88eAQlW+Omnn4b169fDpk2boLurA8aGDpHUA2NDQakXxoacNNwLY5Y0PtwH4ekwjI8EpSMwPmJPEyP9MDEalgZgYjQoHYWJseA0OTYIwekYTI6HpSGYHA9JE0MwOTHspqmJYdDTCExNBKTJUZgKTWMwNeml6ckxEGlqDKanxkukCZiesqTpCZientRScXoS/GkKitNGKk5B0U3TUCz6U29vj9Adam/RokVw7bXXwg033ABbtmxJBJxEgHnhhRfg+uuvF5CMDB6A/q71cHBHGxzYtgIObFvppFY4sL0Vure/At3bV0H3DkyrRcK8B3dietVJr8HBj1+DQx+/LtOuN+CQk3p2/QF6PsH0/5z0R+j59I/Q++kaJ/0Jendj+jP07X4T+vZgestJf4G+jr/A4Y52J70Nh/diegeO7H0XjuzD9J6T1sKR/Wuhf//7TvoA+jsx/VWkga6/wUDXOieth4ED6+Hogb87aQMc7cb0D5EGuzfC4MEPnbQJBg9tgmOH/sdJH8GxHkybRRrq2QJDvZi2ytS3DYZE2g5Dfdth+PAOJ+2E4cM7YfgIpo9l6t8FI/2fOOlTGBnAtFuk0YE9MHoUU4eT9sLY4D4n7YexY5g6RRo/1gXjQ5gOOKkbxoe7YWL4IEwMH4KJEUw9Ik2O9MLkKKY+Jx2GybHDMDV2RKbxfpgaHxBpevwoTE9gGnTSMZiePAbFySEvTQ1DcWoYZqZGYGYa06iTxmCmOAbHi+NOmoDjM5gm4cTMFJw4jmnaSUU4caIIJ47PwMxMEXbt2gW33347/O53v4Pp6emKwKkImNHRUWFVlixZInq4w3vfha6ty0U6sBVhYWAQGgamPsCcPDEDmE6cOC7AaW9vh3nz5gHqttx/FQGDfuL7778PQ0d2C6vRtXUZAyOsDFuYRrAwCpiTJ47DyZMIzYywNghNuZambGAWL14ML7/8soCla8vL0LUFYWFgpFvGwDQiMCdPnhDWBi0NjmvK+VcWMDjAxzHL5PiwGJMwMDyGacQxjGlhEBhMaGnuuece+PKXvwz3339/LG7KAgZdMZyF6Ot4GyQsbGF40F/bQf9McQImJiZgcnIicNAfBAxCs2/fPrjooovglFNOgTPPPDMyNLGBwXltnKobObofOje/xMCImTK2MLW0MDPFcQELDt7HxnDae8I6SxYEDMBJOHHiBNx5553wxS9+EQqFApx22mmRoIkNDE4h46zY4X1rGRieVoZaTysjLOPj47B//34xTYzPWkZGRhxo9GnlMGBOnjwJa9asgXPOOUcAg9B89atfLQlNbGDwCT4+lMQBPlsYfg5TS2CK02MuLHfddRd8//vfh8svvxyeffZZGBoaEu7ZcfFMRj6HCQMGydi7eys0NTW5wCA0l156aSg0sYHB2QUc9HduXhofmCWXaJXDChbOuxk28INLfnCpHl4GPrj0LAvC8qMf/QiefPJJYWV+/OMfA87aDg4OyjHN8WjAHOnZ4wMGNRn2L3yv5cg5c+bA8PBwTGCehkfPLfhhSQKYd26D2VjO+bfBh+JpPz/pl0/7s/SkX7csCMuLL74IfX194rkKPsG/4oorBDQDAwMwOTkJx49Pi4eW0srI5zBqlgzHMPhv6Min4v020XGjhpyEkwFB/2IDgy9S4rRcHAvTeq1XmVkP/J68GvMMPPaLyizMxof+SV4oAwPDmXw1ZkwM8HHMoiwLwrJz504xNYxWZvv27fDQQw+JF32fe+456O/vdy1NOcCceuqpQbzEj0sWH5j74EaH3FkPLAx8l+yVX3hQSdK/Df/5tnqXbD7c5JRx84vz4Wb8+/xb4fHrzGMKMHv+C/wumXifLBsWBqeOcTYMrYiyLAjLHXfcAejt/OQnP4GnnnoKNm/eDPPnz4drrrkGVq1aJSCbnpp0rEw8CxPmllXfwjz/A8fUnQ2PvhX08uUz8Nh5fvEXCpfBKnwBc5cHjDKbDEw+Xr7E5yw4dfz888/D0qVLYceOHQKWn//852Lb448/Dj/96U8FNPhsEPPhk3x0y6anp9IHzPp/O9sB5hJojfy28kOuRbnpBQOY8+fBRvK2Mrtk2X9bGa0MTiVTWNra2oQVOXjwIDzxxBPws5/9TCwrwe+Y34MFX8DMnIVpgw0PftsddLlWpFAAE5ibX9Rf72dgsg2MmkpGWPANE7QsCha0Ppi6u7sFNFdddRUsXLhQfEcLg6/3lzOGqa9L9uYNMKvUGGbJHBeWWQ+2wMGdwRaGgcnXehg6hkEr8uqrrwoLMjU5LtbDFIsT4qElvoGyYMEC+OUvf5nyMcw2fUpZnyV7AG4872Z4RVmXXzwoF5C13+JCxhYm3wvIJifGxBhm5cqVOixFbwHZTHFSQNPZ2QmY74MPPhCWB1dkps/C4IpLYmWouyX+psA4lojmKQVMz9J/da0THsezZNlbcYnWBC0NulnCsohVlx4wuOJyZgb3TTr5JsRSZglL2sYwZIkyfR6joJj14DNwcAedJfs2PNYe3SXr+eSPsHquN8PGwGQPGFymjPEBpqYmQpco48NKHOxjLABcopx6YHhNP67r5zX9tVrTz8DsegM4CEa+Bv2VBMFgYBgYjhoTI2oMA8PAMDAMzGoRw4zjknFcMhGfLPD1/vhxydjCsIVhC8MWhi0MR76sTuRLtjBsYdjCsIVhC8MWhi0McGxlDkYuol/WMRh5Rl2yB+Cmwhx4haP3c/R+DITBs2Tq5y68pcryPbI58Ir4uQsGhl0ydsl0l0wsUzaWKP/lJrjxwWegewcDw8AwMAQYtCxnw6NvBv2gkg6MvvJSremXP6i0iga9uG6++4NK9G3lwtyHOQhGhoJg5O9dMrQu594A67dFAaYFHvvF/4INO+UvkCEgs3+3WP762IuXQQHX85u/QIbrYdwQS/grZByXLHtxyfBXyPLypB+BufY+OBAJGOMn+164DArXPSSBeWcezC5cBqtNYEQgv3+FNv7JvozGJSv/J/vSOUsWF5j/vlRbQekCg79xiVZGrMq8DFbT37h0V11eDm1sYfg3LiOGig2KfIkaC/oXvCfgiPIC+UUcwyAs53ku2SFqYeiPwi5F9+xW2CigIT8Ku/RyKJz/v+FD/lFYGOnPRiC//I1htq0EGZus9CyZGPCLQBjeGEazMOrVGHTPbMC8exvMZmDYwqTbwjjPYZ43IvefdxNs8D2HadEiYN50HRnDuO4Yrt//J3j8Hednx113zNn+Lg/6edAfLXp/g7pk6sFl0CwZv0vGz2H4OQx5DsPADHZvhMGDGACDg2BMTxwFDoLBPzsO/KOwtf1R2OMkkB/GJTtxHFP0n+zDOS12yfgHlZwBP8Ym41mydD6HIYH8OC4Zu2Tskgl37GXo2rJM/FBs19blgInXw/B6GF4PAyB+EzDuT/YdEFaGZ8l40I8Dfh70QxcP+nnQP8qDfuvLMfFfjeFpZZ5WHoCp8QGYHmcL41gXHsPwtDJbGLYw+9dC//73nfQB9Hdi+qtIA11/g4GudU5azy4Zu2RWXnjQz8DAxMghmBjpEWlypBcmRzGxhbESw2MYtjAMjBUN+0YGhoFhYOxsWLcyMAwMA2NFw76RgWFgGBg7G9atDAwDw8BY0bBvZGAYGAbGzoZ1KwPDwDAwVjTsGxkYBoaBsbNh3crAMDAMjBUN+0YGhoFhYOxsWLcyMAwMA2NFw76RgWFgGBg7G9atCMz09DQc3PUnkQ598meQ6U049Cmmt0Tq+fQt6NmN6S9Oaoee3ZjelmnP29Cz5x2Reve8C70dmN7z0t73oG/vWie9D317ZTq89wM4vI+mv8Lh/Zj+5qR1cLhTpiOd60Gmv8ORTkwb4EjXBuh30z+g/wCmjTBw4EMY6KZpEwx0Y/ofJ30EAwe9dPTQZjh6aIuTtsLRnq0w6KZtMNiDabtIx3p2wLFelXbCsT5MHztpFxw77KWhw5+ATJ/C0OFPYejIbi0N9+8BmTpguL8Dhgcw7XXTyMA+kGk/jBzF1OmlwU4YGexy0gEYPdZtpIMweuwgjB07BGNDmHq8NNwD48O9MD7cB+MjmA4b6QiMj2Dqh/HRfpgYHZBpbAAmxo6KNDk2CJPjmI5paWp8CNw0MQxTIo3A1CRNozA1NQrTU2NOGofpKZmKUxNQnMY06aQpKBanYMZN0zAzg6nopBnAVcND/fvFy8QyXjcGgvSSVfwAUFZs5eHhYfj44485cRukWgMDAwO1AaZYLELn5qWcuA1SrQHUMXpM1LKovxO1MAwMdxZZ6DAZGO7xU93j1xpCBoaBYWBiaICBidFYte7N+HyN58YyMAwMW5gYGmBgYjQW9/iN1+PX+p4wMAwMW5gYGsgNMCuv9p7IqnnzGxanqcdcAI+cW4DCuXNhXYwbXOseOOvnyxcwV9/t9aZr5sKsQgEaFprFFzMcDdgx5BeYzUth3X1nNa4oGRivc2sgcFIFzO6NS8puROGSUQujASPdnVn33S3dnsJZ8Mga6a4JqMgLdrPuW0DqoI5bAJrLZ3GbtP2Fi2GlKwJVhnfuWeh6kXMWRL1VPnr+pfp5tXKXQidCR8ppWGvqtkXju8ipAeaj934Ps84/B+ZeNYcINnoD24DxtkkxFggo6ItLkVNx3w03FArgQaOOo66ds43A6Z2HQOhCpcrwIBXjAJ+Fkfm8czv1I+fRLKZwOUmZa+bCI6kas0W/t7UcN6UCGAXL6aefDpddcmEywIjeVwnKL/JOU3CqFxTHKYgsx2E+mkeUo/IrESB4IedWZbhQ4XEGMKXKte5X5+fPciFreGAoLBUDQ9wT3ZoYYlSCNV0c3K6BZDnOzCPgMVwspx7SRQooA48LAyZiueiSUatUrlD4ONnJNDQwJiwVA0PcF10AFtFSK4EQqBQZGMeqBJWjyjMth9oeCRjTcpF6qnI2SzcSweExjK194m1rWGBssNQUGA0M0qiakC2goVBpnqByXEFHKEPkNfKVLJfUWU1wBHYYel63c3DryPtVmzQsMJfPuRAQEDMlNobRxGCI0dknBuuaWyR7a6+nlsfp7p05MeAMzrVyFsAjV6sHkPZza+MgGzBqUiKo3MUXaxbFnHhQAuDPeJ1BwwLzypJ74YG7rvOlP7XO99wjTfThFx4umADRKlGSsY8HC55PHaemhOVYxT9mUGB5YxmvHFWGPl2syhbTwsIy2PKFlCsskHc+fTwU3lYMUXD7NCww6bhpNhEHN3Y6ronrH3afGJgYVsrfkAyMv02yDRwDw8CU5eLmDRR1vQxMRcBkuzdVIuFP7z4zMAwMW5gYGmBgYjQW97ReT5vXtmBgGBi2MDE0wMDEaKy89qp83Z5lZWAYGLYwMTTAwMRoLO5pvZ42r23BwDAwbGFiaKCmwODJOHEbpF0DNYven/aG4voz7KiB3AKzb98+WLZsGTz88MPw5JNPwo4dO9gCshdQUgO5BObVV1+Fb33rW3DGGWeIdM8998DExETJxmIrw1Ymd8CsXbvWBQWBue222xgWtiyRO8vcATNnzhwXmBtvvBEGBwd9jfXJJ5/4trF1YeuSuzFMb2+vCwtaF7Q2Jgg4nnnwwQd92818od/bm7Ugerhysrk9WcG1Nxeg0NweWk/M09TSEZon9DrY8vjaLlcW5qOPPtKA+cY3vgHr1q1zGwVhQZB+/etfu9viCkoIudAM7VRsHS3QXIlwEcCmFuggZTIwyXZAUe9zroAZGRmBr3/96z5oNmzYIGbK1CTAs88+WxYwHS1NPmFHvRGh+RiYsu5HaJuSzidOvlwBg1PHs2fP1oBBSL72ta+52/BvtERxGlHmbYfmKK5XRws0kcAaulvVAS1N6Ea1i89CoQmamkgwCzzOccNsFkZaNyd/czvgd3bJkrVEuQEGYbnjjjtg4cKFcMEFF7iAKKuiPnF/fFiKUBQgGK6YpRfraGmGlg51E03IJDAIipenCMUIFkbAQt02ZxzFwKi2TuYzF8AoWF566SXAgT8+sDz//PM1aL7zne9Aa2trebAgGEKgpYExYdStgAOMOZgvBYyA1YCsWGQLY+mwzPaP+z3zwJiwvPHGG3DrrbfC+vXrob+/H3D8gnniNpwvfwxgNNepQN0m5ZIZM1ulgAk4tw5jMj2s77qrIMpGPkemgTFhee2111xYEr8pztgkfPpYumBqHIJ10EXNwCR+XxIGOrPAmLCgO4ZjGLQs1bopwnLQcYR5syyWIBFgrC5ZAHxmnfh7LD1kEpggWBJxvUIF5lgQExr1HMYUtgAooktmPNsRcLpjHWfsQ84rprg1d49dsiQ6yswBs2fPHmFJ1ABfWZbqw+IJUoiZTh0TsSshi7jJvqnfIKvgABE6rUzyOKDo1surXxLCyWsZmQMGAVm0aJGYDasHLHkVUl6uO3PA4CwYvq7/zDPPCEtTS8uSF9Hk+TozB8zw8DAgNM899xzwW8fshiUNd+aASbqBuDyGjmqAgQmd9WKxULHw3zle0883nzuDcjTAFoYtTKwHd+WILEvHMDAMDAMTQwO5BYbDLLFLVo7lyyUwHGaJYSkHFjwmd8BwmCWGpVxYcgkMh1liYBiYiIO2aodZ8r90mXx4JXWz+cXK+oCfK5es2mGWBDDuK/dqnX91oEkcGMuqTgUnf3pw5gqYaodZ8gFTLEK1Qi8xMJ6Iawl0roDBN5erF2ZJLjemy4/xRnrAqLUuXgglFRlGWyMTsOhLwKjW2PjW0ZjRZ1BM8nzmkmnzXLhfK5usuZGBPbwwT2ZZtRRqo5wrN8AgLFUNs+SszzeB8ayOWuClR3eRYqXRZqT4aXgkkYesplRC9vJEA0bCQs7V0QItKoSt6ZKZq0Np3ohjxkYReZL1yAUwCha1CrMqYZZswIglyAoQBxjfGEftJy6GOM4RtilcR6wIUTxgECrLuZT4rcAQuFS+nH9mHhgTlqqFWVLAKLdJfFKBKpeMhFCiYFAhUkgC8sQGJqAct/c1gXFcOlxK7YFJoKb1zdHfmQbGhKWqYZYUMNSCaEJKGzAKDunuVeMXCFxYtXZS523Mz8wCY8Ki1vdXPcxSHGCoJaGiob29NY8Jn/yuD8qNcY21HCJKek5aF+dvMf4JvDZSjuXYNIIRVOdMAhMEC24PaogktovBeaCoTJFLkfkG9EVD6Mo1IoN+NdNFXSWzHPHdCI4ut5FxCR3Imy5be7P2mzbi2MBrY2Ag4F8hYHvgZiQyCTFGLaOeYZbCRWUHBq9LiVuEXjJELq9bHqv2Iyh4DAWm6ICm8jS326yOeS7/GEscj2AIi+RNKZu/TxP1fmQtX+YsDIdZyk9vXw8YMwcMh1liYKoJUuaA4TBLDAwDk/GZl2reYC472Q4kcxaGBZKsQLg99fZkYNh61XQWM+0AMjAMDAMTQwMMTIzGSnvvyPXX3aty2iO3wHCYpcrFU47g0n5MLoHhMEsMS7ng5g4YDrPEsJQLCx6XO2A4zBIDw8BEHLhXN8xS8MuV8kVG+qJjcqINf+FTnsf/omZy569EfGk8NlcWprphlhiYNAIQt865Aqa6YZYYmLjiS2P+XAGDC8iqF2YpBjBisZa31oSulNTXxpDFXs5CsqYWPUyTzSXTyvCFZGJ3rBJQcwOMWoW5cOFCuOCCC+CMM86wJtxfXoNGBMZcKkxWPZriFysr3ZWWsvyCEfnFPEZ8d48pgj8kEwNT3v2V7ZYLYBQs1Q2zFAcYajkcAQuQzO00NJIDjLFMWAPGhNGZDME8+upMhqZcaDIPjAlL9cIsRQRGrdE3wxcZbppaaoyf0mWzl68BY67LZ2DK9BaCO5RMA2PCUoswS9aePNB6yHGMACJA7F5PyMB4bREs6GrnySwwJiy1CLOkjznITUUY6LiCPDdywxcFuFOeACIAYy3DfpxXLqknqRfvt7dLJoEJggW3V1cIMkSSZmWEiJVbJQfhvlkxZ1ziG7Cj+9bcAh1CyHbhay6ZcvcInLaQTNVtA7vQsnLOzAFTzzBLUhQSGv8YxBGSA5C7n4hbRdx397njFzw2CjBePlUGwsuD/uQgzhwwHGYpOXFkxSokeR2ZA4bDLDEwSQJilpU5YDjMEgNjijzJ75kDJsnG4bIYPlMDDAxPpVZ55jBb0DEwDAwDE0MDDEyMxjLNM3/PlvUodT+np6drt0T56KGPgBO3QZo1gEDVzMJ0bl4KnLgN0qwBBoYh5k4shgYYmBiNleaekeuejGVnYBgYtjAxNMDAxGgs7qWT6aXT3I4MDAPDFiaGBhiYGI2V5p6R656MdWRgGBi2MDE0kBtgVl6Na+fPgkfWBPc0UfKU7qkXwCPnFmDWfQuqIkSsY7XKLn1twW2Xl2NzBkwBClffbRfymrkwq1AaKp8wFl8MhXPnwjq3l2JgfG3ktk36gUsVMLs3LrGLPcINET3z1RfDrMLFsNKSf919Z0Hh3LNgVgkr5BMDA1P2PfG1peW+NFqe1ADz0Xu/h1nnnwNzr5pT1g2SrszdAe7S3XADgrIYrYzfbZOumgrr6gGnb1fWy7MwdL/NjRKQCqsmy7bloWWgdcTvWj4ElpRxw+L09+KNBgmtTyqAUbCcfvrpcNklF1YAzALo9FmEpd424ZbpwAjBEjdOWiLigvnKk8CgiF3xClFbytWsHUKrwyDOTd09Bw4XGLO+a+bCIwxMWfqgUIT93fDAUFgSAWazFKYr5s1S4OK7RYB+F86xRmryIAgYAlmnc45AoStXRADhWDCzLk4ezcKIPJ7FC7vRvC8Zy9vQwJiwJAPMUhBWQgmais4UqdOjU5dH/e0CFwCMC4cQuuemCeFSMBQs+EnPH5BHA8YBEeukny8ZcTBk/nZsWGBssCQFTKewMtJF0gRIBYsCDhCtJqS6AqNuqLSamhtIQeS/E3PTGhaYy+dcCAiImSoewzjikaDMlYN95V6ZwJjfbcIrB5igcmlZ1jyGpTLqo1lOY58GOe8rG6CGBeaVJffCA3dd50t/ap1f1sVqlgQFIwSpZracntoiUjzO95zlamPQrw3ebaL2b/OXax9b0XOrWTXX/Vp8sTexsHmpmEELfM7EkJSlG7OjaVhgzIpW+t0HDB3sKzFZgFEDdjV28bs9EgaxX4yL/HCoMlyhO+cT0IROCZOynXGKdh0KelUGnVFT18SfiYCi9JcbYNQF86ca9/BnOVpgYLgHTrQHLkeEaTqGgWFgGJgYGmBgYjRWmnpCrmt1XE4GhoFhCxNDAwxMjMbiXrs6vXaa2pWBYWDYwsTQAAMTo7HS1BNyXatjDRkYBoYtTAwNMDAxGot77er02mlq15oCMz01Dpy4DdKsgZoCgyfjxG2Qdg3U7Ocu0t5QXH+GHTWQK2D+vn4DPHD9Srj3Z63w7ttr2eKx1Y+tgVwAs23rNnj87hVwy7+shifvXw7/9R8r4LYL2uDhXy2Hf/xjY+xGY2uTX2uTaWC6ug7AM49KUB69Y7mwKjt37gRMa9/7ABbctxzm/fPr8H/vXQZ79uxhcNjilNRAJoE5duwYLF20Cm67YDXcf91y+OMbbwpIFCz0s/2td2H+LRKqZxe0Ql9fX8lGK21h2qEZF3Y1t0cuq725AE0tHaH5aR78my5so3+XKsda//ZmX3nN7fm1JNY2yuoYBiFAy/GbOa2hsChw3vrz2/Dbn64QxyBcQY0VeTuKr6kJmgrN0B6x16YwBJ0nKE/Q9qByzO0SPqOuHS3QXAJgsxztu2iDFuiIeP3asQ18TCYtDIp+0RMrxXgFxy33X7MCWpe9Dtu2bdcsTVvrH4R1Qbie+O0yeOaxFQKwSm8eCrC5vQNamvAzWi8dRfRBeYK2R7mOjpYmKDRVQdgMDOC/gvg/xn9IZJQbl2QeBGbxU63Q29sLW7duhUULWuFXF7bB3ZetgBcXrYKXl7TBvVfKgT9OAHz44SaRF4+p3MKgOyZ76zAxoshdN6q5HWyij5IH2812rGpPUQe17r9gun3SdSwJdUcLNJEydFdTdgxNLe2igygUmqCpiVxbTNdU1btRPzNrYRQwCA2mjo4OePm5Nvg/l6yC5u+vhiW/XwUff7xL7FN5kgBGCFSNXYTQmqClQ7cyAgTaqzvjBzr2iJJHiSoIGFGG5hZKQNzziPoZrpjFHepoaSbXYEImgUFQtOtkC5NOC6NgUJ/LlrQBJvWdflYOjOmGqd6XDOZDINKFbAgwxJJYgQk4T1HA6UBC/7aAooA0P/XzOcCoTkKVw8AwMKZwfN8tPbbPLQsQqSbCKHmUMINACiijSEEKykPKVtcorZXnarlwFy2dAh6PZVMrailTlZ2mz9y4ZMqSVNPCmOMFd4xC3ZUAkdYFGAFPqYkJ6YLRcYtWVwZGjEWDhvWpG/QrUNRn9YAx3TFv3CJ6Z+Wy0B7e7XWNXjpKHvfYgEG/tQx/zy/qFmYJLIAzMJ6lVZ1i6oHBKeLOzk7fWCUImO7u7sqmlS3Ccl0NbZ/j8xORKstkujnUpfHn0YH0jtW30zKKRXPAjnkdC0LqI+qtnsOY4IlrobNtBuwKZO2avTq5baLypewzky4Zzn7hO2NP/HY5rFrxhnjtJcjCIFRvtK2BBU7+LZu3lDUNrlkRnwhMoTrQOFO1KHa913VMrcQAABFlSURBVEaBRckjheg/1hOoqBeZEg6aQjbzFcjsmoJV9Ka+KfAAYGj9lXX1tYtXz7SAlElgsPHHxsbgvXfeh4X/vhweu3O5mBnbvHmL+EQrg0/5X1n2utj31IPLAd8OGBwcLAuWtNxsrmflgGYWGCoOfCP5uadbAV/ARKuz4F4J0TP/uRL+9sE6mJycZFAy0PvTe16tv3MBjGo8dNWW/XcbvPRcG5Treqmy+LPy3jqNbZgrYNJ4g7jOjQUmA8OuCLujMTTAwMRoLO7tG6u3r8f9YGAYGLYwMTTAwMRorHr0aHzOxrJqDAwDwxYmhgZyBQyHWWqs3jqN1jMXwHCYJQYlKTgzDQyHWWJQkgJFlZNJYOoVZkl7SZG8WKkaO02f4lqclyZt16Vea6frZCJdn3j7WX89Xr1pLV4ArfBFzSTKCLuOTAJTrzBLQljaa/LyLWUliLAb0Wj7KDC0bkHbaZ6gvyV45tLrdmh2IElC7EmUEVR/3J5JYOoVZskPjLNgi7wqH3YzGmlfEBhB20vWPcL6mCTEnkQZYdeSWWBU1JhahlmKAoy6oeKzQJYHOwuzQl0dIw+1XOLc7roXsxcvQqz9TS3QjvHKLO5RIDBG3fRjg9bM6GMs1TZaXYPqEHCtqgwletnO/vZQ++N+Zh4YtXCsFmGWxI3WXDJHqGSbD5SiEjO9qc7iMSoWIUiapx1anMiUvvOKvF74pEj7qRVU4wx6fudZhSjL2C620bgFavGYmw9dU1p3HRQlWtU2bkfg1IMueit1LRQYWS+vHdR5KvnMDTAKnKAlyri/0jBLvptpueHihhKA1BJhKgpxQ8WxSmQSIF8eIWKbGGn+KPuJpQsBA+slrtEFAYUvx2m+utH6079DHhL620bGK/CsValrIfl9HYwd0rjwMDBOoL/EgHFdBTkTZAqJ9oB+MOhNJUIME5zYp886KbdO9NSR9iswvfP7wZD7fNsD6xax/gQgX9s4IaRcYEpdi8ov4lr7rykuHLb8DEzSwGjWwxOganyfKCoVXODxzrnL3O8DI8jyBJZPgHGskOtqEUhUu+Cnr23MbYHn8tpZlCGAoYE6vP30fOX8zcDUG5hQl0b531R85s0P24d5y9tvEy8KzA9SQPlC3Kr+apzmfbeJ1XZOfVvAuQiAbn5xfr+raTtvnG2ZBabmYZaUmOJaGHUcHXRbguMJoWoDZ2PQrx2PvbUnTnms9x0FQvcLkdHj1YyXNlaRoPqBscFgmxVzJjLoeYTQw5/DuABQC2eU4bsWVW/nOqhbrJdnAGhMlthAyiQw9QizhI0rxFQGMO6xZPxjc1+k8L3xik8IIcdLKLxjzfK1/c3tFksSDEzU+tvy0SDmupjl+QK3BVyrmV+1mbpefT8D476qzmGWpOBQpJySa4NMWhhTIBxmKTnBmG2bt++5AEbdVA6zxOAoLZT7mStgym0kPo5BUxpgYNjH5zFODA0wMDEaS/Uy/Jlfi8PAMDBsYWJogIGJ0VhsWfJrWdS9Z2AYGLYwMTSQK2A4zBJbCGUpyv3MBTAcZolBKRcQ87hMA8NhlhgUU/CVfs8kMPUKs1TpzeDjGx/wTAJT1zBL5C1a9SOqaQdBvfGrVnKKzxJvZVf1mp21LrQ+6m3kqp6Xwyz9AebfsgLm/fPr8MRvl1X2s+PW1/vl6+PuEtsYszHVvvFxyo+ybCFOeZXklfCay4+9NTVllW0sdgsrI5MWBuOSNVSYpXr2xglA2jDARFjgFSb2wH0MjAeMihbTKGGW8KbpLo7eW6oFTuLTce/kQjHHWolt+jFCCGqVpHIJ1apDdT4TWiESr5ywOoUBY9bXXdQWUh+sr3kculfh12lbxWkb89B2KkDBuG7zvE1NTUBdOzO/CVnmLYwCRn3WNMySZT29T3xGr6lA0YXXBE1N3hJjddPVzZRi98RfNOOCGXDgceIYB6pSdfLtJ1bLV19Vtrac2lmeTCD2HSfaIew6EQR6jTZYZKRRt+0sS71958VrYQvjtzA1A0b18OLTE7kUt+2mSzGpm2zCoIJYaINaDTLZo6rjFURSBEpgZu9Mz1m6ThJIb3kz9siqPqK+Wi8epT6ehXHra4ssQ6/TAr13bAA8Cl4TVK2+DAzQMYwCRX3WzsJI4ShhiZsrbrouPOUOqHx+YKi4HWHQHjFQSLpwNSvhOz68TtqxxLrgNfnqG7E+vuMca6CB76un6gCCAcE6+QA3gSHfvftidm72c7BLVs0wS6Z4zO+G+KwCLFtIOjDU7RCCUqKJUKeGAMZmgXztJzsXOg7RrtUGOLtkRWFhGiXMkt6TGiL23XBLj10KGMs4yd5rKkuFn7SnLl2nWMBErI/eLtibq/qRnp1aGNdyhFgCC/wMjEVkQiBke0OFWRI3Uc0AKXdBv+mBcbXENZUjJHmMcvPc9sExAUaFNHx4IaqQWF/xgLFdo78+5QCjoCoYdRXjPGExDfidtqfPwfznVWMY2okQaImusB0z6ZLhhdUjzFKQsMRNIjdZfvfGDVTY/htaGhi8Xil6e5kuMCFuTVidgq4Ly/XXV4qtVH38x0W7Ttu10thmRTFR4LSD5Wc7/OeV9XWv3+hMvLaT+TILDL1QDrMU3GPSduK/S7dTLoBRQuAwS6UFodqKP+1tlStgWAR2EXC7RG8XBsYY1LF4oosnj23FwDAwvKY/hgYYmBiNlccela9Zt7gMDAPDFiaGBhiYGI3Fva3e2+axPXIFDIdZYsFXCnkugOEwSwxKpaCo4zMNDIdZYlCU0JP6zCQw9Qmz5H/B0L1Jlrdo3X0xxlD4vhN976ycMkod475TRRbCaWtUfPWV101fqS91jjTvzyQw9Qmz1IDAiLeTW6DDJ/Jgy+N7OdF42zrNYk+i7pkEBldcLnpiJTx5/3K45V9Ww/3XrIDWZa/Dtm3bYefOnW5qa00yzFJGgVFvQpd4izcJMaahjMwCU/swS1GB8fJp7o9FkNr+5nbxKr3mkqn1Hsp9Uqso1Wv3ajt+Bu4z1+boeVHE3uv9qu7t0NKEr9DjGhK1rUN7nmO+3k/dOu26yLIHBgZALLipdUPY1vRXP8ySXTji2rUxjMznhRVC98jZZoqaQuSs86DAdLQ0Q0uHcq+MxVPohllcMtPl8mCQ5Zj7sf7eNlV3utjKf90SFgJiRwu0tNvLN89fa63EPV/mLYwKfqE+qxcEwy8c92bYgCFwiHwCCEdkWn4FhBQuBcYt3xmjoLC1/SYwolwiZHEcguYB4MHhnFfUS+33g61g986rl6fVMcL5tfwxxl61Oo6BSSwIRjxgPIE5wqSQUHiIaHxAqN6fuF5auSYwolxvVaaKWEOtnQCGlKetZnQsoXYOc1tA3YWgI5y/VsIv9zwMTGLAhFgArWcNAIvmCRCdDox0wcyxiSZmLMfn1pkWxrNgKCKfhSHA+q0JHmtcT0DdPWDCz1+ukGt1HAOTIDCB/rgmXENgSpA0D7U2an8EYepAWcYw1nITBibsHGH73OvU61MrEKKeJ7PA1CPMkjVKpRCJFzVG9ci6qyOthWcdJFTUOsiBNBmjmOITPTvZjwK09PbCglCrgyA2e89qKrYwykrR2S9z0B9y/qjCrVe+TAJTrzBL8iY6rhIZB9ApVQVMU4uampVjCg8W1cM60Djl4H7TgiiIxFjENu3sWCW1X9ZPL5eOX3B/EsC45bhtoCYNPBdO1MnZr7ePuv7G/MwkMHjD6hFmSQqy1I0OcMlS4pJEu8ZSbZDe/ZkFht7YxgqzxMDQe5O2v3MBjLopjRFmiYFR9yONn7kCJo03iOvcWO4bA8NjB+0dMAY0HFAGhoFhYGJogIGJ0Vjc+4b3vnloHwaGgWELE0MDDEyMxspDD8rXGG5FGRgGhi1MDA3kChiOSxbee7J1Kd0+uQCG45KVFgLDEq2NMg1MbeOShTzBN98sjuECUCGbL1/SfUn/rb3YKV6SbKR1LLKt6dvcSV9/UHmZBIbjkjm9JV1jExlSuxgVQHV5szjKdUTJE7kNgq1NJoHhuGTlAyNe79fWq3jikdDUwdJEgSFKHgbGu5nUhDZ2XDLPdRPiVGtGLCLV9tvWuziL09y1JSSwhnYsniNwHwVAruUJtiJ0P/1b3Qd5bdrxIXX01gbJtT7qOujaIPt1eG2I992WR2wj1yz0IepCr1fVO/pnJi0MDbO0detWWLSgFX51YRvcfdkKeHHRKnh5SRvce+UKuO2CNviv/1gBH364CTCqDMYyw2MpfNH/1m+idpw2hpH59IVbzjZyg8UNpxBhD1rQV1QmHmYpgqCwXlLQ0YAJr6OlLcR10gVnlqXW5nJttBymhRHl6HAIC0naWLtHEa1P5oFR4ZUaLi6ZeePoDdYA83o/T6zeNnrTfftNEVmBQOE7AqV1CBCQAFnUPRowtH74t15Hf0ehrI5mpczriAJM0ayfPJdWbsA1mnWm33MDjAKnUeKSUbdD3BAKSYBwdbFJaISAlVtnWCB7rxsSZingvFQwXh1MQWJ97KIMrqPMr7eFZVtZwBjLrX1l2Dsdeq22vxmYBKPGeGIybobWs1sEgT0dzRMgXL18KVhzbKKJzxRJQLmeMGwQ0Guh++nfKo8JTKk62trCss28jkgWxmlTx63V207VN/4nA5MgMMJHpuMOZfK1G24RBOajeai1UWWYIrGI3ycKWqYLpTE+cMuX4sEygp5v6LNkJhx4vAFRyTra2sKyzbwOsy3M9nOvCcvC68V6hV+312mEQ8TAJAiMEozWywvxpyfMkroGExoJiy46Ey7xvUCu1QRfAKQmDVCYFjhs23zgWY7z5ZHCx3o3NTUFdgJRQVH5MgtMfeKSeb2smiLVZ8OoSBozzJIShhI/vQ49lpr/WpvbpZDpwFqC5oybfFPjFuHbgHG2ibqICYfg47w8Ehjp6hKIXevj7I/5PZPA1DcuWakbYbvZpY5pjP1U/BQKBVlDftKxYUw4bNeTSWDwQjkuWWNAZhNd7bbJzolOjFR67swCQxuG45LlDx7XpTSfd1VoZXIBjIKnMeKS5U+8qv2z8JkrYLJww/ga6tvhMDAVmmgWcH0FXOv2rzowF110EYyPj8PMzAwnboNUa2B6elr8Zqs+1S6nzCHgXyFge+DmK6+8Erq7u8t8AzhfvVete0s+X3x9Vd3CNDc3w6ZNmxgYdv1SrwHs+L/3ve+JZRamlQmyGLEtzIIFC+C1115LfWNxbxy/N85am61fvx5mzZpVXWA2btwId955JwPDFib1Gnj88cfhK1/5SnWBwYESjmP6+vpS32BZ6zH5eqJbTXxz5Ac/+AF85jOfqS4w6NutXr0ann76aQaGrUxqNdDa2gpnn322FRYczwT9C94TdISzfd68eYDr67lXi96rcVs1RlvhYB8fj5xyyim1AwaXCCM07Jo1hggYxmj3AV2xK664Aj73uc8FwnLaaacFmouyLQyWuGXLFrjllltg7969bGnYPWt4DQwODsLtt98OX/rSlwJhQXcMgQr6VxEwWGhXV5ewNC+99JJ4BZ97umg9HbdTbdtpzZo1cMkll8DnP//5UFhOPfXUIFbE9oqBwVJGR0dh8eLFcO2118KSJUtg165dDd/bsGBrK9h6tDd6Pji4R12ec845gTNi9KFlKC0AkAgw6iQ4rnnhhRfghz/8oXhHByuKJpATt0EtNXD99dcL/eHa/29+85vw2c9+NtSqKGC++93vKikHfiYKDD0Lnhwr+oUvfIETt0FNNRA2oFdwmJ9nnnkmlW/g31UDBs940003RSLbrDx/twfn43apTrtceumlgYCYO6oKjDoZWhu+2dW52dyu5bdrVKuidIyfNQGGnnD27NmAiW90+Tea2668tsOOG7VXyb+aA1NJZflYboF6twADU+87wOdPVQswMKm6XVzZercAA1PvO8DnT1ULMDCpul1c2Xq3AANT7zvA509VCzAwqbpdXNl6t8D/B7rZdsQIZ8ZZAAAAAElFTkSuQmCC;" vertex="1" parent="1">
          <mxGeometry x="50" y="-467.5" width="204" height="349" as="geometry" />
        </mxCell>
        <mxCell id="rkN8ecLvOj-APzGdif4w-4" value="" style="shape=image;verticalLabelPosition=bottom;labelBackgroundColor=default;verticalAlign=top;aspect=fixed;imageAspect=0;image=data:image/png,iVBORw0KGgoAAAANSUhEUgAAAMwAAAEmCAYAAAAuin+iAAAgAElEQVR4Ae2da4wcxbXHRygf+IgURXl8IiiKIkVKuLkyH8BcG5JNUHJjQQgXSEJCIBhzMUQsCIjkSxIbgp3I+BKcy/JyjDEEg8GXG0wCy8NAcIwxfmAbY3ttr732Przrfc7O7szaPlenuqq7qqZ7pntmenam+z/S0cx0V1fXVJ9fnVPVfc5kCC/0AHogdA9kQpdEQfQAeoAADJQAPRChBwBMhM5CUfQAgIEOoAci9ACAidBZKIoeADDQAfRAhB4AMBE6C0XRAwAGOoAeiNADACZCZ6EoegDAQAfQAxF6AMBE6CwURQ/UHJienh5au3Yt3XXXXdTa2ko/+tGP6OKLL4agD+qiA6xvrHcszzzzDB0+fLimlNcMmP379wtIuMEPPfQQbdy4kbZs2UJdhzsoO3xMk27KDgdJD2WHpYz0UNZHxkd6qbT00fhokByn8VF/yY32U26slAxQbixITlAuGywT2UEKliGaGC8lwzQxXkJywzSRG3FlMjdCpozSZC5AJsZosqRkaXLCk/xEloRMZik/OV5GcpSf9JF8jvL5CUMK+Qkqlkkq5C0pTFLBlTwVCsXS09Mt9I5175FHHqFrr72W5s6dS9u3b68JODUBZuXKlXTDDTcISEYHj1D/4Y10dNcLdOSjv9CRj56VsoaO7FxDXTufo66dz1PXLpa1Qrjs0d0sL0pZR0c/XkfHPv5fR/a8RMekdO/5P+r+hOWvUl6m7r0vU8/e9VJeoZ59LH+j3n1/p979LK9KeY16O16jvo52Ka9T3wGWN+j4gTfp+EGWt6RsoOOHNlD/obelvEP9nSzvChk4/A8aOPyelI00cGQjnTjyTymb6EQXy/tCBrs20+DRD6RsocFjW2jo2IdSttJQN8s2IcPd22m4h2WHI70f0bCQnTTcu5NG+nZJ2U0jfbtp5DjLx47076HR/k+k7KXRAZZ9QsYG9tPYCZYOKQcoO3hQyiHKDrF0ChkfOkzjwyxHpHTR+EgX5UaOUm7kGOVGWbqFTIz20MQYS6+UPprI9tFk9rgj4/00OT4gJD9+gvI5lkEpQ5SfGKLCxLAnkyNUmByhqclRmsqzjEnJ0lQhSycL41JydHKKZYJOTU3SqZMseSkFOnWqQKdOTtHUVIH27NlDt912Gy1atIjy+XxV4FQFzNjYmLAqK1asECNc34E36fCOZ4Qc2cGwABiGBsBMDzCnT00Ry6lTJwU47e3tNH/+fGK9rfRVFTDsJ7799ts0fHyfsBqHdzwNYISVgYVpBAujgDl96iSdPs3QTAlrw9BUamkqBuaxxx6j1atXC1gOb19Nh7czLADGccsATCMCc/r0KWFt2NLwvKaSV0XA8ASf5ywT4yNiTgJgMIdpxDmMbWEYGBa2NAsWLKAvfOEL9Otf/zoSNxUBw64Yr0L0drxODiywMJj013fSP1XIUS6Xo4mJXOCkPwgYhubgwYN0ySWX0BlnnEFf+cpXQkMTGRhe1+alutETh6hz21MARqyUwcLU08JMFcYFLDx5z2Z52Tvnu0oWBAzRaTp16hTdeeed9OlPf5oymQydddZZoaCJDAwvIfOqWN/BDQAGy8pU72VlhmV8fJwOHToklon5Xsvo6KiExlxWLgXM6dOnaf369TRjxgwBDENz9tlnl4UmMjB8B59vSvIEHxYG92HqCUwhn3Vhufvuu+k73/kOXX755fToo4/S8PCwcM9Oinsyzn2YUsAwGQf27aCWlhYXGIbm0ksvLQlNZGB4dYEn/Z3bVoUE5iH6/fkZo1HcMJYbV8R143Ix3STPcdNq3Ljkm5fNf+PSsywMyw9/+EN68MEHhZW54ooriFdtBwcHnTnNyXDAHO/eXwQM62WpV+m9PkfOmTOHRkZGagIMN27WwofFUwG1vdMfAzD/uJMuYghn3UVbO98l3Omv551+07IwLE8++ST19vaK+yp8B/+qq64S0AwMDNDExASdPJkXNy0dK+Pch1GrZDyH4dfw8b3i+TY1gKt3XgwIekUGhh+k5GW5SizMrN8ul4/GPEx/uEBanQtuok01fzSm9sBsXXyeYyUBTJ0fjcmKCT7PWZRlYVh2794tlobZyuzcuZPuvfde8aDv448/Tv39/a6lqQSYM888M4iX6HnJagPM87Rp4delmzaHntu1kOZJF2ren+XnC26m9+WzZO/f+w3TpZs5nzYbz5KtoKUzPbdv9n2/NF2yDbfRbFH/v9IDb8tnyd5udSxGZgYte8d7luzD+71JoBhxbvhvWneDV7cahS5ashbPko12xz7p56VjXg1jK6IsC8Ny++23E3s7V155Jf3xj3+kbdu20X333Uc/+9nP6PnnnxeQ5ScnpJWJZmH4Gge9gvcEHFEbYH5DN0pAMsLCeMAohcxIYJ6/rlhZnTI/oLUCmpdp7fVBZTIk5jAhgfEDIwNgaHx4+h6+5PssvHT8xBNP0KpVq2jXrl0Clp/85Cdi29KlS+nqq68W0PC9QS7Hd/LZLcvnJ5sbGBcGBYuc+B/VLEzmgv+kTbvl08qv3ywtQ4bmPek8sdz9xnx32+x7n6DuN251v9+0ip9YfoV6Vl/uWqTQwLxzh7Q4Gbro/mfp+EF+WnkNLVv83+JpZbhk0/e0MlsZXkrWYXnhhReEFTl69Cg98MAD9OMf/1iElfB3Lu/Bwg9gNqmFMYFhV0ytknkWZt6f+RF/CczKyxzFnzmf3tce71+rrM5191H3qh9IOC6nF8Qj/vxo/0rXRQsNzNP/Ieu5ktaJR/zNx/sBzPQAo5aSGRZ+woQti4KFrQ9LV1eXgOaaa66h5cuXi+9sYfjx/krmMKynQa/gPQFH1MYls+Nh/IF5f9G/lAVms5rfzLyVPnCBsSb9IVwyd+7yb3fQhwCmYeJh9DkMW5EXX3xRWJDJiXERD1Mo5MRNS34CZdmyZfSLX/wiiXOYcMAcK+OS3bTqr5qFyVCgS7b/D+4iwOzfrRbBYx/+Tk3u5aQfLllDBpBN5LJiDvPss8+asBS8ALKpwoSAprOzk7jcO++8IywPR2SmysJwxGXgpH/mLXKl7H4XBtPlcxYCnBuXT9ED2iqaWc5bJQua9Iuoy79cLV02p16sktXvPgxbE7Y07GYJyyKiLj1gOOJyaor3TchyORHK7MDSxHMY7z5MSAsjl5WLoOG5i7GsbEJz02rLJeMQZdctY4W/gtYFLCvb0Fy0+Dk3RHndXG81DsDUDxgOU+b8AJOTuZIhynyzkif7nAuAQ5SbFBjE9CNEeXpDlJtslQzAABgAE+HRGAADYAAMgEGapYZPs4Q5zJ6XCHnJkJfMyU1mrpL55SUDMAAGifwiJPIDMAAGwACYtTEEkCFV7Gg/UsXCwsDCwMLAwsDCIBl5PMnIE2phfkvzMnPoOWTvR/Z+zuJfw+z9TQ7MPV6UpQggU/EwAAYWBhaGjL+7eOLfKZP5Ov3+Ve3/YV6bRzcufJi6dgEYAANgNGDYsnydfv/3oD9UMoHZtFAGjQkrdBk9z08sy2hL46ll94llK6b/+sX4QyXxp0pYJWtOl4yty/lzaeNHYYBpoz/83IvpZ0BmL3rMAebJyyjD2WLsfyDjEGU32lLG9OMfyAjLys36eD8Dc+09dCQUMNZf9nFM/3X3OsCI5BeX0VobGJEE4wcynh/A4C/7OL9yuMyXQYn8pjemPyowf77UiGx0gWG3jK2MdNWcFEv8P5cva2HKnAgD/3HpQAOXrDldso8izGEYFj3Nkm5htKwx3avYPVMhytqfwq66nDIzf0kfwCWDS9bMEZcbf8NZLsuvkokJ/88XummWxCRfuWQ6MOye+QHz5q00G8DgX5Sb2iVTfzv+xPdNV+uCebRJ5CXTV8navJzLmQzNu06bw7juGMfVf4OWviH/dtzNSya3vwmXDC5ZM89hFDCBk348GoP7MLgPo92HQYgyQpQRoowQZYQoI0Q5IDussTl6qlhYGFgYWBhYGFgYWBjDlAR8gYV5l/rxl30Cllwd/lCJs146kqWpQrZk5stTJ8P/izKrd2Pe6ccqGcElg0sGlwwuGVyyAC/M2AyXDC5ZbvQYXDKDihJfAAyAATAlALF3ARgAA2BsKkp8BzAABsCUAMTeBWAADICxqSjxHcAAGABTAhB7F4ABMADGpqLEdwADYABMCUDsXQAGwAAYm4oS3wEMgAEwJQCxdwEYAANgbCpKfAcwAAbAlADE3gVgAAyAsako8R3AABgAUwIQexeAATAAxqaixHcAA2AATAlA7F0MTD6fp6N7XhFy7JO/kSN/p2N7WV4V0r33Verex/KalHbq3sfyuiP7X6fu/W8I6dn/JvV0sLzlyYG3qPfABilvU+8BR/oOvEN9B3V5l/oOsfxDynvU1+nI8c6N5Mg/6XgnyyY6fngT9bvyPvUfYdlMA0c+oIEuXbbQQBfLh1K20sBRT04c20Ynjm2XsoNOdO+gQVc+osFulp1Chrp30VCPkt001MvysZQ9NNTnyXDfJ+TIXhru20vDx/cZMtK/nxzpoJH+DhoZYDngyujAQXLkEI2eYOn0ZLCTRgcPSzlCY0NdlhylsaGjlB06Rtlhlm5PRrppfKSHxkd6aXyUpc+S4zQ+ytJP42P9lBsbcCQ7QLnsCSET2UGaGGcZMmRyfJhcyY3QpJBRmpzQZYwmJ8coP5mVMk75SUcKkzkq5FkmpExSoTBJU67kaWqKpSBliqampmi4/xCxPjv5ujkRpCe23qvvGfUh7DufYGRkhD7++GMI+qCpdWBgYKA+wBQKBRmivArv29AHnU3aB6zHdbEwAAaQNCskersBTJOOdPpFxOf6DUYABsDARY6gAwAmQmdhJK/fSN6ofQ1gAAwsTAQdADAROqtRRz20q36WD8AAGFiYCDqQGmCe/al3R1bdnZ37WP1GpuqtwDJacn6GMudfT+9FuMDVn7eZ+ij+tqYLmJ/+yhtN119PszIZalhoHvsu4GjAgSG9wGxbRe/d87XGVUoA4w1uDQROUwGzb/OKijtRuGS6hTGAcdydWff8ynF7Ml+jJesd8y6g0h6wm3XPMq0N6rhlZLh8Pm6TsT/zXXrWVQJVh3fuWex6aefMiHarcvr5V5nnNepdRZ0MnVZPw1pTty/id6mqdVGbBpitb/0PzZo5g66/Zo6msOE72A8Yb5ujjBkNFO5YR8l15f4Vzc1kyINGHae7dnKbBqd3Hg1CFypVhwepuKhFFsYp551btk87j2Exhcup1bn+elrSVHO28Ne2WgiiHN8UwChYvvjFL9Jl37+4NsCI0VcpVLGSd9oKp0ZBcZyCyOc4LqeXEfWo8koJGLwS51Z1uFDxcRYw5er13a/Oj/cokOhlGx4YHZaqgdHcE9OaWMqoFNZ2cXi7AZLPcXYZAY/lYsl2OC5SQB18XClgQtbLLplulfSLj8/RB46GBsaGpWpgNPfFVBYfpdWtBEOgJDQw0qoE1aPqsy2H2h4KGNtyae1U9Wxz3EgGB3MYv/6Jtq1hgfGDpa7AGGBonWoosg9orKh6maB6XIUOUYcoa5UrW6/WZrXAEThgmGXdwcFtI/arPmlYYC6fczExILbUbA5jKIOljHKfmKwbbpEzWnsjtXOc6d7ZCwNycm7Us4yW/FTdgPQ/tzEP8gNGLUoE1fvYdw2LYi88KAXAe7TBoGGBeW7Ff9Fv776uSF5Zc5/nHhlKX/qHl1aYAKVVSqnNfTxY+HzqOLUk7MxViucMCixvLuPVo+owl4tV3WJZWFgGv3Il6hUWyDufOR8q3VeAKLh/GhaY5rhofkoc3NnN8ZvQ/lLXCcBEsFLFHQlgivsk2cABGABTkYubNlDU7wUwVQGT7NFUKQnevesMYAAMLEwEHQAwEToLI6030qa1LwAMgIGFiaADACZCZ6V1VMXv9iwrgAEwsDARdADAROgsjLTeSJvWvgAwAAYWJoIO1BUYPhkEfdDsOlC37P3N3lFoP2BnHUgtMAcPHqSnn36aFi9eTA8++CDt2rULFhBeQFkdSCUwL774Ip177rl0zjnnCFmwYAHlcrmynQUrAyuTOmA2bNjggsLA3HrrrYAFliX0YJk6YObMmeMCc+ONN9Lg4GBRZ33yySdF22BdYF1SN4fp6elxYWHrwtbGBoHnMwsXLizabpcr+b291Uiix5GTre3JU7j21gxlWttL9hWXaWnrKFmmZF82mPVLlYXZunWrAcxXv/pVeu+999yLybAwSHfccYe7LerFFEqUaaV2/UJ3tFFrWKVh2FraqEM/vkE/AxgvDDzoX8Ur+tvxqEoXV/nR0VH68pe/XATNpk2bxEqZWgR49NFHKwKmo62lemUHMBX1fVw6Y9ebKgvDS8ezZ882gGFIvvSlL7nb+DNbIrujyn9vp9YwrldHG7VoiTV0l8axTt6oFbzPsmCFAhnHtraL77YrJIDWzm3u76C2Fnaf2sV7JtNCLS0+Lpdov3N+PwsTph3l+7Jx3dfUAMOw3H777bR8+XK68MILXUCUVVHvvL+iC6opUqnjO9paqa1DKYQPZD4WxlZM25KJ/bobJ+dQOhCOIuugOef2yjjAMChu+0Q9+jEFEueW8xa7XWHaUapvmmFfKoBRsDz11FPEE3++YTlz5kwDmvPOO4/WrFlTGSw8x/BRrjAKwErmKa2sR1d+XxBZ2aVii/2aksv5jlFvQBmzzRIYYxJvA+2UUQsYBjAB5zDa0aBzsTDXSZVJPDA2LC+99BLdcssttHHjRurv7yeev3AZ1SEVv0cARihakGvE9ejAiHo1N007TihuwHkNRQ0oUzCUXLlk5oqWAYXVtqJ99mKHdBWNAaHJoUk0MDYs69atc2GpGIygCy6Ur9zysTNi23MTQ6EspTStgHLltPcAGGoFjIBKAmzUqeZNyiKFaUdQ3zXR9sQCY8PC7hjPYdiy1BwWecHFiKtbB1sRfJTKVkIBiF6HYQU0UFTdvvsta+Fbxnb/rGNU/QXezi6f5gbqv1cB43uOoDp9fod7vsbel0hggmCpietV8sJKC6IrPJdX92FspRIA+cxhLNemGMQOamtV92ocpdTdOLUapluu4jr85yf6MWpg4fpaWoqXzEWdChgBVsZwJ/3aoeps1vfEAbN//35hSdQEX1mW+GHxRkahSNpcI6MBoJRI5E32Xf6VAPDxtjJqdaqJt6N42jEZB0Bug638drv86rCPEfUL0IvdTRMY/v3h2tGssHC7EwcMA/LII4+I1bDpgKUxlMFRXBMID+jIbRTAmMvLkesoaZmraFud600cMLwKxo/rP/zww8LS1NOyNIoSOVasVgourYZr7ZpHueO4HokDZmRkhBiaxx9/nNLx1LHpBglXz55DVTgKuy4cYHEXihIHTByjCupMt1XRrz+AqXD01TsRn9MDFIABMK67AfDLgw9gAAyAiaADACZCZ2EELj8CJ72PUgsM0ixB+SuBO5XAIM0SYKkEFj4mdcAgzRJgqRSWVAKDNEsABsCEnLjHnWbJvTOuPSRphPyGbGc1F9Q8Vj4FUPWd/1rV0/ywpsolizvNUvHTuyp0WX/yuAmUhsMOqoasCX5nBQNYqoCJO82SLzB8UQIejzetQQMpGIAJvDeVKmD4yeX40izJVEcBDyr6wWS6cNbTxTK4TDxMaaVvMmJq3H2O26SnSWrrUNtUnL733Ti3Zk2M7W5MjnecDrndDjOWxjtGr9Ms00CDREhrkxpgGJZY0yzZMe7WBRDKZSumBpex347M7GijNplq1lFSDS53n6Og5pzJU1pH0VUZPRhMbtPaUhQmLQPDdGV3INDaUXAiOL0yPucSg0Bxhhsdwkb/nApgFCwqCjOWNEtRgPENyNJi5n3382islbGAdKMddcUvUnQfOLgeocia8he5ZM5xLgw20KotRj1+53K21SywTZ23ju+JB8aGJbY0S1GAEYpVInWSFurrKqmfYhuKYim12Gdvs79Ll8gGoBwwBhiaW2XU43cuv23a8cbvacztiQbGhiXWNEslgbEUJUjhihTGcXPc7P8lj7POERmYCBYmqB0ApignedMkI7dhUfH9sadZMlwiOUraCmYoVvmRVMxbuN6Sx1UBDLdPm1+VncMEtcOoJ0x7yv/2RpvTJNLCBMHC2+O8AGIibAHjTNKLJ7qirK6k7Iap1Entrcb/yej1Fk22rUm/4cIFzWFUmllhhezJus+cpqgeuSJotN+px5ufABg2Nw1vYaYzzZKjzNbcxFAqfUR1FEotG7tuFyuxGMG1eqw6zPMoGMMoqCqjMvQ75zAh4zZqbRMDgDpOLU87v8Nsh77y5tVh1u1fT5yDWK3rTpyFQZolHUr7c/MrbK0BiFpf4oBBmiUbEv07gIkKiF0+ccCkL82SDkS5zwDGBiDq98QBE7UDUL4cZNiv6wiAKbr3AQXRFQSfTX0AMAAm1qX2pAEHYAAMgImgAwAmQmclbbTE7zHdrTD9kVpgkGYpurKEUaikl0klMEizBFgqBTt1wCDNEmCpFBY+LnXAIM0SgAEwISfudUmzZD2tXM3FwbGNB3eqLMy0pFkKCTPgaDw4/K5JqoCZtjRLgCYx93pSBQwHkNUvzZJ60FGPPZGxK0a8ixYazGAZ+/wTABpxKL5/XS4DvNwMnNY5AHDFAKcGGBWFuXz5crrwwgvpnHPO8RXe72eKw2wTiuzOYRxg9LRHTiqlFmpxA8IUVF5gVkdbK7V1KPfEjmL0iXQU4c8Z0gO1zHYUyDlvG3UAlIqvrbr+qQBGwVLfNEvFMCjr4YXxlldmVn4XhoBY+uIytkVh8FRkpoIR7wqCKO+JB8aGpX5plnyA8csrZiSOcJRYWAjXndKAEdbEhsGxOi5U0uLooc/qsw5qFCVBWW9wSTQwNiz1TbNUCTCOC5Zx3To/GMIAU1wGSu8pfTV9kVhgbFjqn2apAmB8LEixu2W7VtZ5Aty2apQEx3qwJRKYIFh4e5wXX7hSrnWwFFlMuH3mErpLZiu7dK9cd0tlc3EXDeQcKKO5bSqhoFZGZIFRKZww8a9KBxIHzLSnWaoGmIIHgJh3+C4ZOyCqeQnDZFghAYRZhsti/uJZiWoGzcQBk740Sw4cAKI2QJSDKXHApC3NkpNZE5P8copeq/2JAybZaZaKXS0jJzLmJ1XNT8JAlThgwvxolKmP+5LEfgYwGJVjH5WTBA6AATAAJoIOAJgInZWkkRK/pTK3FMAAGFiYCDqQWmCQZqmyETbtlimVwCDNEmCpFPzUAYM0S4ClUlj4uNQBgzRLAAbAhJy01SXNUtCDjvpTySHbW82FxbHxDAypsjB1SbPEkZLGo/XywgGYRKzGpQqY+qRZaqO2FjM+RYz2AAbA8P+Ql3sxkY3iHnAAWV3SLInALysy0gamZDol5yHLlraIKZpU8JibDwBPMdda91JjYVQUZr3SLJnRlwUqWMCUTqeknkr2oAuTosk+J9Ir1X4ekwpgFCz1TbNk5RSzgLFHPjNqUlkYL19Z2RRNwmLZFsUnJBoLDlV5PIkHxoalfmmWVLixVGIfYIRFcN0nfd7jA0y5FE1cv1aX/hnRmLWzNIkGxoalvmmW+CJpim8AUyadkn6caxF8rIVepwDGtjC1UxTbIqb1e2KBsWGpf5olqawqE0xbq7fc7KPcZV2ychZGncdNMwtY4oA6kcAEwcLb4+hEVac96Ta26/dnbOUWAFXpkqkVMuMeUAe1Ib1STa954oBpnDRL+ggvXTBNmZ3kFRln3lGUTklz5cK6ZKKccxzmL3rf1/Zz4oBJX5ql2iqEsop49+/XxAGTtjRLUGx/xY6rXxIHTLLTLNVXOeJSumauN3HANPPFQNsbf0AAMO6kuvEvFoCa/msEYABMTZddkw41gAEwACaCDgCYCJ2V9NETv6+8y5daYJBmqbxyAKDiPkolMEizVKwIgCNcn6QOGKRZCqcYAMi/n1IHDNIs+SsCAAnXL6kCpl5plsI//CgfltQeyoTihlPc6eqnVAFTlzRL7p/CFsgvrHi6LjTOWxsQUwVMfdIstRv3NZCIojaK2ijApwoYDiCrS5ol7d6OB4yKcVGpkzgjjNqmJbuw/3rcyqRp5gFASHK9QUoNMCoKs15pltSF9KIwVXCXlzrJiPmXkDmBZRoIHW3U1u6M0l5dzncPxmSN4qrvGvE9FcAoWOqbZknmIssoQCQw+hynKNmFT6ILZa2QRslwdacLpsQDY8MSe5olI9WRgoUtgJ/7ZW3zSY7hKoaM+9dX4NRnpFGqn4VNNDA2LPVPs6RfSAsOYTmsbWWB0Vw1ZXnwXlfLk1hgbFimLc2Sq9AWHH7A2Nlk3GPVErVusXQY8dm1xHqfxfA5kcAEwcLb4+xYe1JunisEMCpVUkazJPak37jJiTRKZh/HP3AkDpjGTLPEFzIcMKwA5tKxblWcOtTchd8xf4kfEh3KxAGDNEv1VSBdmdLwOXHAIM0SgIkT3MQBgzRLAAbAxLDaEWenou7kQps4CwNlTa6yNsK1BTCwXrEutTeCkteyDQAGwACYCDoAYCJ0Vi1HKtTVnK5jaoFBmqXmVNjpHmhSCQzSLAGWSsFLHTBIswRYKoWFj0sdMEizBGAATMiJe+OlWapcefkBzZY2MxdANYrgd2zpp6+dttejHX5tm65tqbIwSUqzVHNF5eA1I3RAPjVthFQXA17zdoQc/ABMHToqSWmWaq6oACbU/ahUWRgOIGusNEvOiO1kipF/QZ7xd7UYEDcOpuhvyp2/NTdjY5zYGXNbgexz8X6jbs5JIK2K2G5ZGKNsUTuKLdB0WYK4zpsaYFQUZmOlWVLKqkVYFhzl1+cnQkl1d0kmxPDKhAOmVAqnQggLU74dAIasV8b6XvYrExkX7WHrVbA0XJqloBh+AYSEKKAMK280YEqkcGJ3uBwwodoBYGwgmg4YG5aGSrOkg6HP4XTlDCgTGZiAetxBpxwwAceb7QAwTQ2MDUvDpVkKUEInibmM5Q8oYypqCJcsoPMP/2EAAAYbSURBVB4AEw3yxM5hbFgaMs2Sbkl0C8PKreYsvmXshBp+E3wLIt96NGXRzynbwlCqBQADYretdju0+twyydqWSGCCYOHt7ogawwU1FKyofn/lEscoOMQxlqLLbDMuQFqycm8OIxcPtHpEvVZWGWebtsCgpXAScxg9vZPKXuOukjntL9eOOPu3EepOHDDNlWbJGX2VcqtlY3spWKVoUvsZFD5GB6YgV9dUmdZ2P6ujVuXUEnVACqfAZWUJjUyH69+OZFkUG9LEAYM0S8lWWFuB6/09ccAgzRKAiROixAGDNEsABsAUTaChFHEqBeoO1q/EWRhc7OCLjb6pvm8ADKxXrEvtSYMUwAAYABNBBwBMhM5K2miJ3xPdRUstMEizFF1ZAFgKk2DwRUeaJcBSKfypszBIswRYKoWFj0sdMEizBGAATMiJe9xpltSFsOPmM9ZTwKrc9LwXP3U8Pe1oTnBTZWHiTrPkPlWsPWbPyqgAKn4KuQ5K4xPnUgRImDIhB6WiuhN2XKqAqUuaJQsWpUBFCSjqpUhhYAhTpl7tbfDzpAoYDiCLL82SHfhlWw99v/5ZlfOJXxFRkip2RYt+FErllFcxKSoORo+RseNsnOhJ7ziG2a+M2OYGjsn2ibZowWcNrthqoKr1e2qAUVGYsaVZCqFQXtBXOGA62lqprUMBZR8j5yJ6VCVbioweFOaXDcYERiiUbWFEPSYcwkLaEKUQmlQAo2CJNc2Sj5LZo5s3ctvKz1A4ilxqnuMB55V3Y+41q2PUYcMgz6NbouIUS3b7yrfN/q1J/Z54YGxYYkuzFBIYR1FthfQAMJTdx2XyFN3HUoSCwee4Iqikq6Ysis/+pAJR7nclGhgblnjTLPlBoNwpftf3659VGXsUd8roFsTPwngAedAZ24qUPRwwIkuMXMAwz6vam873xAJjw1K3NEuhVslsOFj5LIh8LJapuD6KX0ML47iIPB/idlnzohTOXZTlSSQwQbDwdvXD43mXVsGCxllSNpWOlV9PWSS+6xN4O4+YAEjPFBMBGOPGqc9xPnBy/3C7W1pajHbG02/NY60SB8x0pllSyqSUXy31Ou8mMMqiqDJ+aZEc0OSyclGmfB/F97Mwcps4j5iTBB/nlZEKLJe17XmV+p1pfE8cMI2aZklX/qZRwBBL5WmDJnHAIM1SrdwbxxLpiw5pg8Pv9yYOGKRZqh4Y16VUy8opnuTb0CQOGPsH4nv1AKEPvT4EMBg9Y1459JQtCeABGAADYCLoQOzAcITj0NAQLkqEi5KEkTipvyF2YK699lo6cOAAgAEwTa8D2WyWvvWtb3n/Zi3/9oPvXwW9gvcEHNHa2kpbtmxp+s5K6oiJ3xV+jtXV1UXf/va34wVm5cqVtGLFCgADC9P0OrB+/XqaMWNGvMDs3r2bbr755qbvLIzE4UfipPbVwoUL6bOf/Wy8wLCnNnfuXNqzZw+ggZVpWh3o7e2lSy65hM4444z4gdm8eTPdeeedTdtZSR0x8bvCW82lS5fS2Wef7QtLTSf9ai1gyZIlxD4gLlL4i4S+aoy+4kWroOVk8YR3LVfJFDD5fJ5uu+022rFjB6CBa9Y0OsArY9/73vfoU5/6VKB1+dznPqfUvOg98rKyXgNnnpw/fz61t7c3TYdhlG+MUX46rgMP7gzLmWeeGQhLKXeMdb8qYLgCtjSLFi0Scxrc0EyvMk4HAGHPyRP8+++/n775zW+WtCwMC8NU6lU1MKpyXgjgpwDYTVuzZo24uckNDfujUA6w1UoHBgcHhf5xkpQFCxaIm5Of//znS1qVcnMXpec1A0ZVuH37dvrTn/4kJlV8F5UnVxD0QT11gPMW8PnOPfdc+sxnPhMKlHKumNLvmgOjKp43b17ohiq68a6lkdWea0K/xN8vl156qVLdku+xAaPOetZZZwEcKH9D64DS1TDvsQPDjWBrU25lAqNo/KMo+tjs46uuuioMI0aZugBjnJGIuKGcdR+CPqinDoR1u2x91b9PCzB6A/AZPdBMPQBgmulqoa3T3gMAZtovARrQTD0AYJrpaqGt094DAGbaLwEa0Ew9AGCa6WqhrdPeA/8P9nWoEv4k+gcAAAAASUVORK5CYII=;" vertex="1" parent="1">
          <mxGeometry x="410" y="-440" width="204" height="294" as="geometry" />
        </mxCell>
        <mxCell id="rkN8ecLvOj-APzGdif4w-5" value="" style="shape=image;verticalLabelPosition=bottom;labelBackgroundColor=default;verticalAlign=top;aspect=fixed;imageAspect=0;image=data:image/png,iVBORw0KGgoAAAANSUhEUgAAAMwAAACzCAYAAADFVvPmAAAbUklEQVR4Ae2da5AV1bXHT6XywQ+plFX5ko+aWH6xKpJYxpQQB62aJGXdUBiwTCAmKvIwoLmMJuotNVeEXIkXJwqGUYQoImGQh3hDoo4PQJkQQd7vGWDe79c5c94D/G+t3b279+7T3XP6zJnhPNZUrTpzunfv3mf3+u219mt1CPzHNcA1kHUNhLJOyQm5BrgGwMCwEnANBKgBBiZAZXFSrgEGhnWAayBADTAwASqLk3INMDCsA1wDAWqAgQlQWZyUa4CBYR3gGghQAwxMgMripFwDDAzrANdAgBpgYAJUFiflGsg7MJ2dndiyZQsef/xxVFVVYdasWbjjjjtYuA4mRAdI30jvSDZu3Ijm5ua8Up43YBoaGgQkVOCVK1eivr4eBw4cQGtzI6JD7Yp0IDrkJZ2IDpkS7kTURWLhLvhLN2IRL+lBLOIu8Ugv4sN+0of4sJf0Ix71lkR0AN4yiETMT4aQiPlIfAiJeNiSZDwMXSJIxj0kMYykr0SRTNiSSkQhJBlFKhkbReJIJV0kFUcqldAknUogU5JIpxySTiJtSQrpdKZ0dnYIvSPde/XVV3Hfffdh3rx5OHz4cF7AyQswb7zxBubOnSsgiQy0oLe5Hm3Ht6Ll6N/QcnSTKbVoOVaL1mOb0XrsHbQeJ9kihNK2nSDZZsp2tJ3cjvaT7xpyagfaTek49R46TpP8nyl/R8eZv6PzzE5T/oHOsyT/RNfZ99HVQPKBKR+iq/FDdDfWmfIRus+RfIyec5+g5zzJp6bsQs+FXei9sNuUPehtIvlMSF/z5+hr3mtKPfpa6tHf8i9T9qG/leTfQgZav8BA235TDmCg/QAG27805SAGO0gOCRnqOIyhTpIjhnQdxZCQYxjqOoZw93FTTiDcfQLhHpKThvSeQqT3tClnEOkjOStkuK8Bw/0kjaacQ3TgvCkXEB0kaRISG2xGbIikxZRWxMKtiIfbEA+3Ix4h6RCSiHQiMUzSZUo3EtFuJKM9hsR6kYz1CUnF+pGKkwyYMohUYhDpxJAtyTDSyTBGkhGMpEiGTYliJB3FxXTMlDgujpAkcGkkiUsXSVKmpHHpUhqXLo5gZCSNU6dOYfHixXjuueeQSqXGBM6YgBkeHhZWZd26daKF6z73CZqPbBTScoRgYWAIGgbmygBz+dIISC5duijAqaurw6JFi0B6m+vfmIAhP3H37t0Y6jkrrEbzkbcZGGFl2MIUgoWRwFy+dBGXLxM0I8LaEDS5WpqcgVmzZg02bNggYGk+vAHNhwkWBsZwyxiYQgTm8uVLwtqQpaF+TS5/OQFDHXzqsyRiYdEnYWC4D1OIfRinhSFgSMjSPPXUU7jmmmvwhz/8IRA3OQFDrhiNQnQ1fgQDFrYw3Omf2E7/SDqOeDyORCLu2en3AoagOX/+PH7yk5/gK1/5CiZNmpQ1NIGBoXFtGqqL9F9A06G3GBgxUsYWZiItzEg6JmChzns0SsPecddRMi9ggMu4dOkSfv/73+Mb3/gGQqEQrr766qygCQwMDSHTqFj3+V0MDA8rY6KHlQmWWCyGCxcuiGFimmuJRCImNPqwsh8wly9fxs6dO3HzzTcLYAgactFG+wsMDM3g06QkdfDZwvA8zEQCk05FLVieeOIJ/PjHP8aMGTPw2muvYWhoSLhnF8WcjDEP4wcMgXHu7BFUVlZawBA006dP92UmMDA0ukCd/qZD64MDs+6nWuGogKHJD2EfT1zyxKWcvPScuLQtC8Eyc+ZMvPTSS8LK3H333aBR24GBAaNPczE7YHo6GjKAIZ30+/M/63LltGnTEA6HAwKzEn+6NZQJSxBgPl6EqZR+yiJ8wTP9xix/2cz065aFYHnzzTfR1dUl5lVoBv/nP/+5gKavrw+JRAIXL6bEpKVhZYx5GDlKRn0Y+hvqOSPWt4mGm3TLFBoM8PoLDAwtpKRhuSAWpvY+uzAVz/5FWRqzGi/cn52F+ffS7xk/iIEps6UxUdHBpz6LtCwEy4kTJ8TQMFmZY8eOYenSpWKh7+uvv47e3l7L0uQCzFVXXeXFS/C4ZMGBeQbzTXIrnl3luZZs8/02VAbp38X/fmSsJXvnAee5EKYuXWutJdsyRz//0AZ1LdmbeHGKfX7qHxfjN2Z5frPBXkv25f/YnT9x/9t+hy+ttWR/xkLzmoWbXjb+r5iFhRVmvvNW2WvJamebLdVs7OC1ZEiOcS0ZDR3TaBhZEWlZCJZHH30U5O3cc889ePnll3Ho0CEsW7YMv/71r/HOO+8IyFLJhGllglkYev5ef95nPK4IDMza/zAV6Eb86QOvxZer8cJkW6mlaQyF7sI7J9+FHzBbXGCi6x/aQIsvdVjsfI17SWC2z3W7Nx27B9vF4ksbGCuPisexY/ktNhzm4ssd8428bn9hOy++pAWYYwSG5llo6Hjt2rVYv349jh8/LmD55S9/KY6tWLECv/jFLwQ0NDdI6Wgmn9yyVCpZfMDU//eNplL9FLVZr1ZeigVmi77gjXfFSmVXl+zjh41+Teh7WPGJsVp5/7KbjPvNWY6uXf9pnieAaMXyh+jacLdZnhAEMHuqcLu0OBvN1cqfPWYdu/35zei9oABT8TgONn0GY7XyKtvy1NJq5VewSOR1C/68j1cri+UxYwSGViuTlaGhZBWWrVu3iuNtbW148cUXMXv2bLGthL5TehsWWoBZchZmK/Yt+a6lyFYrHgrBF5j1P3O9Rlw/5bc4sGGmeX4mtokl/rS8fwOqb1MszNsmQLc9hi+V5f2W1Zn7Zw2YhZv05f075pnWaf4q9Et3rOK/cJiX9+dleb8cSiZYaIUJWRYJC1kfktbWVgHNvffei1WrVonvZGFoeX8ufRjSH68/7zMeVwR2yd6fhwqzBffsw6ybZil+xZIatJ3IzsJ8IQcCQj/DVpf9MAektZmyGAcsYF7Q+jBW3yVHYPr2PmFao9lYZLpji2p58WW+Fl+qfRiyItu2bRMWJJmIif0w6XRcTFrSCpTq6mo8+OCDRd6HOaoPKeujZM9i/uSHsFlal/uXGBvI6hZakGVrYaYu+6u1gWz/shlYseuf6LIsTO4u2cK/0QYy2yVzWhjaRGZZGdEwzMaOFgYmX8Ak4lHRh9m0aZMOS9reQDaSTghompqaQOn27NkjLA/tyCw+C0M7LhUro7pb4n8VGNMSqWkkMO1v3mVZITpvjJKtxQplBMy+7iYDmLF2+m/7HQ46Ov1uwPRJV4zKP/8V9DMwed1xSdaELA25WcKyiF2XNjC043JkhM4lzHRxsZXZgKXY+jDKFmV1PkYqd8WS1Wg7ro6SfRcv1GW6ZLRFWR0t8xtWDs15XtmivBwPWSDehBd36y6Z3KJs9Vlk2rnVyhZlfwvTt/dJa5BgUS1tU2YLky8LI7coU3yAZDLuu0WZJiups0+xAGiLctEDUwh7+rc9aHbSQ3dje6M9DzOWPf2H5PByxZM4zDsuC2ZPPwNzageCBcHwnoe5/Y8b0D1GYPS+SwiGdWELUyhBMBiYvABzE6p35ydqjArMQjEPw1FjEsOFEzWGgQkMDIdZKucwSwwMA8NxyQLEJWNgGBgGhoHZIqJkcuRLjnwpImB6biALHvmSLQxbGLYwbGHYwnBs5fGJrcwWhi0MWxi2MM9iQWgaNnP0fo7eT4EwuA8jX3dhb1U21pFNw2bxugsGhl0ydsmgve5CbFN2bFH+cAHmL1mN1uMMDAPDwCjAkGW5EX963+uFSjow+s5LY0+/fJmSulo59MAy9yAYYqWyGgSDX6hEs/3l+EKl4uz0k3W5dR7qj2YDTA1euP832HfCeAMZATL1uTXG28doPwyFWHK+gYy2KU95BPtddlzyG8jK+w1kxQvMfc+gJStgHK/se+MuhB5YagAjAvndhS1OYD5+BFM9tigzMAyMAU2xBcEIAsxfp2s7Ky1g6B2X1q7Lu7BFfcelFQxjBrae4XdcGu+55HdcFqeFORqgD0OwTLZdsnbVwqgvhV1P7tnD+EJAo7wUdv0MhKb8Fvv5pbCI9DIwRQrMJhixyUYfJRMdfhEIw+7DaBZGTlySe+YGzCePYCoDw29RzjIYuVdsZZr28PrzPuNxReAwS3JP/1pH5P7JC7AvYx6mRouAueABpQ9juWO0xfh7WPGx+dpxyx0zj3/CLhm7ZNlF7y9sYDw7/byWjOdheB5GmYeRM/1ew8oMDAPDwDAwHCo2L6FiZZilkRTvh0Gr6MOwhWELwxaGLQxbGLYwNHCW8ygZd/ox0LYfA20HMNB+AIPtX5pyEGxh2MKwhWELwxaGLcwe9Dbp74eh6P19zfX2K/s4VCyHilXnMNklY2DikXbEIx1CEpFOJIZJukzhyJcqL9yHYQsDBkZDwv8LWxi2MAyMPyPaWQaGgWFgNCT8vzAwDAwD48+IdpaBYWAYGA0J/y8MDAPDwPgzop1lYBgYBkZDwv8LA8PAMDD+jGhnGRgGhoHRkPD/wsAwMAyMPyPaWQaGgWFgNCT8vzAwDAwD48+IdpaBYWAYGA0J/y8MDAPDwPgzop1lYBgYBkZDwv8LAZNKpdB26h9C2k//E4a8j/YzJB8I6TjzATrOknxoSh06zpJ8ZEjDR+ho+FhIZ8Mn6Gwk+dSWc5+i69wuU3aj65wh3ef2oPu8Kp+h+wLJ56bsRXeTIT1N9TDkX+hpItmHnuZ96LXk3+htIfkCfS370deqygH0tZJ8acpB9LXZ0t9+CP3th005gv6OIxiw5CgGOkiOCRnsOI7BTiknMNhFctKUUxjstmWo+zQMOYOh7jMY6jmrSbi3AYY0ItzbiHAfyTlLIn3nYcgFRPpJmmwZaEJkoNmUFgwPtjqkDcODbYgOtiM6RNJhS7gDsXAnYuEuxCIk3Q7pQSxC0ovYcC/iw32GRPsQj/YLSUQHkIiRDGqSjA3BkngYSSERJBOqDCOZHEYqGTUlhlTSkHQyjnSKJGFKEul0EiOWpDAyQpI2ZQQjIyMY6r0gtqsYL/iiQJC2eFGQU+TLcDiMkydPsnAdFLUO9PX1TQww6XQaTYfWs3AdFLUOkB6Tx6RaFvl/Xi0MA8ONRSk0mAwMt/hF3eJPNIQMDAPDwATQAQYmQGVNdGvG9ys8N5aBYWDYwgTQAQYmQGVxi194Lf5EPxMGhoFhCxNAB8oGmE2/smdk5bj5vDXF1GJWY/mtIYRunYO9AR7wRLfApX6/8gLmV0/arenOOagIhVCw0Ky5k+EowIahfIE5tB57n/lO4SolA2M3bgUETlEBc/aLdTlXonDJVAujAWO4OxXPPGm4PaHvYPlOw10TUCkL7CqeqVbKIK+rhubyubhN2vnQndhkKYHMw753Bbleyj1DotwynXr/9fp9tXzXo4mgU/IpWGtq1UXhu8hFA8zBT/+Ciik3Y8690xSFzb6C3YCxjxnKGFJAIV/cUHJVuZ/EvFAINjTyOtW1M48pcNr3USC0oJJ52JCKfkCGhTHS2fc2y6fcR7OYwuVU8tw5B8uLqs+W/bOdyH5TUQAjYbn22mtx10/vyA8wovWVCpWp5E1OhZOtoLhOQuRyHaVT04h8ZHqpBASez71lHhZUdJ0DmNHydT0v78+fuUJW8MCosIwZGMU90a2JQxmlwjpdHDqugeRynTONgMfhYpnlMFwkjzzoOj9gssyXXDLVKuWqKHyd0cgUNDBOWMYMjOK+6ArgorSqlSAIpGQNjGlVvPKR+TkthzyeFTBOy6WUU+ZzyHAjCRzuw7jVT7BjBQuMGywTCowGhlKpmiK7gEaKqqbxysdS6CzyEGkd6UbNVymzHODwbDD0tFbjYJWRz8s6KVhgZky7AwSIU/LWh9GUwaGM5jnRWdfcIqO1tltq4zrdvXMODJidcy2faiz/lZyAdL+31g9yA0YOSnjlu+ZOzaI4Bx6kAvBnsMagYIHZvO5pPPvEAxnyj9pltnukKb3/D/dXGA+llUqp9H1sWOh+8jo5JGz0VTL7DBIsuy9j5yPz0IeLZd5iWFhYBrd0PvkKC2TfT+8P+dcVQ+RdPwULTHE8NDcl9q7s4vhNXH6/58TABLBSmRXJwGTWSWkDx8AwMDm5uOUGivy9DMyYgCnt1lQqCX/az5mBYWDYwgTQAQYmQGVxS2u3tOVaFwwMA8MWJoAOMDABKqtcW1X+3bZlZWAYGLYwAXSAgQlQWdzS2i1tudYFA8PAsIUJoAMTCgzdjIXroNh1YMKi9xd7RXH5GXbSgbIF5vz583j77bfx/PPP46WXXsLx48fZArIXMKoOlCUw27Ztw6RJk/Ctb31LyFNPPYV4PD5qZbGVYStTdsDs2rXLAoWAeeSRRxgWtixZN5ZlB8y0adMsYObPn4+BgYGMyjp9+nTGMbYubF3Krg/T2dlpwULWhayNEwTqzyxZsiTjuDOd7/e6Ki2IHu2crKorPYWrqwohVFXnW1eUprKm0TeNb10WmPUrKwtz8OBBDZgbbrgBe/futR4mwUIgPfbYY9axoA9TKFGoCnXqg26sQVW2SkOwVdagUb2+QP9nYOxt4Hl/KWxQxRuP9JFIBNdff30GNPv27RMjZXIQ4LXXXssJmMaayrErOwOTU92Ph7645VlWFoaGjqdOnaoBQ5Bcd9111jH6nyyRW2X5H6tDVTauV2MNKpXAGqpLY1gnu9XyPuewYOk0tGur6sR3pyskgFburZ9vRE0luU914jMUqkRlpYvLJcpv3N/NwmRTDv96LGzXtWyAIVgeffRRrFq1Cj/84Q8tQKRVkZ90PqcHqiiS3/WNNVWoaZRK4QKZi4VxKqbTkonzqhtn9qFUIAxFVkEz7m2nMYAhUKzyiXzUa9IQ9zb7Lc5yZVMOv7ophnNlAYyE5a233gJ1/GnCcsqUKRo03//+91FbW5sbLNTHcFGubBSAlMxWWjMfVfldQSRlNxVbnFeU3OzvaPl6pNHLbAKjdeKdQBtp5ACGBozHPbRyFGhfLJvnJNOUPDBOWHbs2IGHH34Y9fX16O3tBfVfKI2skJw/AwAjFM3LNaJ8VGBEvoqbplwnFNfjvpqieqRJa0ouXTJ9REuDwlG2jHPOwQ7TVdQahCKHpqSBccKyfft2C5acwfB64EL5Rhs+NlpsZ99EUyiHUupWQLpyyqcHDPkCRkBlAqzlKftN0iJlUw6vuiui4yULjBMWcseoD0OWJe+wmA9ctLiqdXAqgotSOZVQAKLmoVkBBRSZt+t5h7VwTeN0/xzXyPzTdJxcPsUNVH+vBMb1Hl55uvwO636Ffa4kgfGCJS+ul++DNS2IqvCUXs7DOJVKAOTSh3G4NpkgNqKmSs7VGEqpunFyNEy1XJl5uPdP1Gtkw0L5VVZmDpmLPCUwAqyQ5k66lUPmWayfJQdMQ0ODsCSygy8ty/jDYreMQpGUvkZIAUAqkYib7Dr8awJA1zuVUclTdrwNxVOuCRkAUhmcyu8sl1sezmtE/gL0THdTB4Z+f3blKFZYqNwlBwwB8uqrr4rRsCsBS2Eog6G4OhA20IHLKIDRh5cD5+FrmcdQtgnOt+SAoVEwWq6/evVqYWkm0rIUihIZVixfCm5aDcvaFY9yj8fzKDlgwuEwCJrXX38d5bHqWHeDhKvn7EPl2ApbLhzDYg0UlRww49GqcJ7lbVXU58/A5Nj6qpXI/5cPUAwMA2O5Gwz+6OAzMAwMAxNABxiYAJXFLfDoLXCp11HZAsNhllj5c4G7LIHhMEsMSy6w0DVlBwyHWWJYcoWlLIHhMEsMDAOTZcedwyzlFxa5EsB1zRqtxM7TioOxKHi+ry0rl4zDLI0PMK5gMDAi8lLIK/6S13EiMt+U55ofh1kaB2CqasxoM/rW5oyNcFl6Abk+24m6rqwsDK1c5jBLdnwAfe+LsYgzpzBLYiOcIxCH08KYe2rE4lBtrw9B7Lw3lVEN8iHLnLkCW7qFRr6Z5/MNUtkAQ7BwmCVVoYwdlzY0ctWzovgCBPUa7zBLGZvJHMD4h5fKvLfYolBJOz31naV2ec1YbMpKauMamT6/1lSCVxbASFjkLkwOs2QqkwaEqbSKAqbT7tuYZSdfh8SR1gGMVDj5Sdfayi8tjOLWuezy1IBw3dRGZVCAHwc3sOSBccLCYZaUllconVQwF6V1iwxjtfgeLbzcju0CjO4+jQKMgFWWTQFc3l/ALl01/VMCLeHM52dJA+OEhcMsKbBQ65sFMFmHWRKtuQKdBoxhfewYBQZsvhYmK2B0dzGfYHjlVbLAOGGR+/s5zJICjabUirJrrgwdp5Y+093RXTIzXwlhjTIPI6yBrtyjumSjASPvY4XdVX6XVv78Hi9JYLxgoeNeLUd+jpstqXQb5IMrizBLtmJarpesB6dym+7UmCyMdBflPaSFs8JP2eXJz7M18is5YDjM0pUMsySVNLPhMAJzmH2NjPBSbtYt06Jlzu0Y11lD1dm8PUE2Yjl+lhwwHGaJlNZQpLx1foWF0F2qfLbaxZRXyQHDYZbMuRI5WpVjS2orsdmKa8PN0pKU32fJAcNhlvRwrbbiB1duqy/CsFh935IDZiwKwtcGh6rc6oyBGbPLwkpWTtAwMAyM5W6Uk+Ln+lvHHZiZM2eiq6uLHwqDWRI6MO7ALFq0CEeOHCmJysq1VeLrSsNtpYb/Rz/6EdR5H/m/136wwBvInn76aezevZuBYQtT9Dpw6tQp48VSynt68g7Me++9hxUrVhR9ZbGVKA0rMZbnSJPiN9xww/hamP7+flA/ZiwF5WtZWQtBBxYuXIivf/3r4wsM+XbV1dWgpfWF8KO5DAxfLjpAq9wrKipcYSG3zOvP+4zXFQDIysyaNQvRaJSh4b5MUerA3Llz8bWvfW1igCGWPv/8c/EqvVzo5mvYKlxJHVi5ciWuv/56T1jybmGk8XnllVdAN7+SP57vzfAF0QHqSkyePNkXlh/84AdSxTM+c3LJ1Fw2btyIxYsX82Qmu2YF3XAODAyI0d1bbrnFFxY/60J6P2ZgKJPDhw+LPg29Hry1tbWgKy5Ia8Rpi9960eRkbW0t7rzzTlx33XWjwjJp0iTVHmT8nxdgKNdUKgWyNjQYQB0qgmfdunUsXAdXTAdo2Jhm8m+88UZ89atfHRWWq666KgMQ54G8AaNmTNuKv/3tb+Paa69l4Tq4YjrgNcciZ/Odn6oOe/0/LsDIm11zzTWjUu0sNH/XY3JxfYx/fVx99dVSZUf9HFdg6O4LFixgaFzWKjEI4w9CNnU8ffr0USFRE4w7MOrN2OIUhpJko0ilnOab3/ymqpaB/p9QYAKVjBNzDRRgDTAwBfhQuEiFWwMMTOE+Gy5ZAdYAA1OAD4WLVLg1wMAU7rPhkhVgDTAwBfhQuEiFWwMMTOE+Gy5ZAdbA/wOJFVf7jl59FAAAAABJRU5ErkJggg==;" vertex="1" parent="1">
          <mxGeometry x="720" y="-385" width="204" height="179" as="geometry" />
        </mxCell>
        <mxCell id="rkN8ecLvOj-APzGdif4w-7" value="" style="endArrow=classic;html=1;rounded=0;entryX=0.5;entryY=0;entryDx=0;entryDy=0;exitX=0.5;exitY=1;exitDx=0;exitDy=0;" edge="1" parent="1" source="rkN8ecLvOj-APzGdif4w-2" target="rkN8ecLvOj-APzGdif4w-3">
          <mxGeometry relative="1" as="geometry">
            <mxPoint x="140" y="-551" as="sourcePoint" />
            <mxPoint x="140" y="-429" as="targetPoint" />
          </mxGeometry>
        </mxCell>
        <mxCell id="rkN8ecLvOj-APzGdif4w-8" value="Opens" style="edgeLabel;resizable=0;html=1;align=center;verticalAlign=middle;" connectable="0" vertex="1" parent="rkN8ecLvOj-APzGdif4w-7">
          <mxGeometry relative="1" as="geometry" />
        </mxCell>
        <mxCell id="rkN8ecLvOj-APzGdif4w-9" value="1" style="edgeLabel;resizable=0;html=1;align=left;verticalAlign=bottom;" connectable="0" vertex="1" parent="rkN8ecLvOj-APzGdif4w-7">
          <mxGeometry x="-1" relative="1" as="geometry">
            <mxPoint y="24" as="offset" />
          </mxGeometry>
        </mxCell>
        <mxCell id="rkN8ecLvOj-APzGdif4w-10" value="1" style="edgeLabel;resizable=0;html=1;align=right;verticalAlign=bottom;" connectable="0" vertex="1" parent="rkN8ecLvOj-APzGdif4w-7">
          <mxGeometry x="1" relative="1" as="geometry" />
        </mxCell>
        <mxCell id="rkN8ecLvOj-APzGdif4w-11" value="" style="endArrow=classic;html=1;rounded=0;exitX=1;exitY=0.5;exitDx=0;exitDy=0;entryX=0;entryY=0.5;entryDx=0;entryDy=0;" edge="1" parent="1" source="rkN8ecLvOj-APzGdif4w-3" target="rkN8ecLvOj-APzGdif4w-4">
          <mxGeometry relative="1" as="geometry">
            <mxPoint x="300" y="-364" as="sourcePoint" />
            <mxPoint x="430" y="-390" as="targetPoint" />
          </mxGeometry>
        </mxCell>
        <mxCell id="rkN8ecLvOj-APzGdif4w-12" value="Has" style="edgeLabel;resizable=0;html=1;align=center;verticalAlign=middle;" connectable="0" vertex="1" parent="rkN8ecLvOj-APzGdif4w-11">
          <mxGeometry relative="1" as="geometry" />
        </mxCell>
        <mxCell id="rkN8ecLvOj-APzGdif4w-13" value="1" style="edgeLabel;resizable=0;html=1;align=left;verticalAlign=bottom;" connectable="0" vertex="1" parent="rkN8ecLvOj-APzGdif4w-11">
          <mxGeometry x="-1" relative="1" as="geometry" />
        </mxCell>
        <mxCell id="rkN8ecLvOj-APzGdif4w-14" value="0..n" style="edgeLabel;resizable=0;html=1;align=right;verticalAlign=bottom;" connectable="0" vertex="1" parent="rkN8ecLvOj-APzGdif4w-11">
          <mxGeometry x="1" relative="1" as="geometry" />
        </mxCell>
        <mxCell id="rkN8ecLvOj-APzGdif4w-15" value="" style="endArrow=classic;html=1;rounded=0;entryX=0.5;entryY=0;entryDx=0;entryDy=0;exitX=0.5;exitY=1;exitDx=0;exitDy=0;" edge="1" parent="1" source="rkN8ecLvOj-APzGdif4w-3" target="rkN8ecLvOj-APzGdif4w-19">
          <mxGeometry relative="1" as="geometry">
            <mxPoint x="150" y="-100" as="sourcePoint" />
            <mxPoint x="152" y="-10" as="targetPoint" />
          </mxGeometry>
        </mxCell>
        <mxCell id="rkN8ecLvOj-APzGdif4w-16" value="ProceedToCheckOut" style="edgeLabel;resizable=0;html=1;align=center;verticalAlign=middle;" connectable="0" vertex="1" parent="rkN8ecLvOj-APzGdif4w-15">
          <mxGeometry relative="1" as="geometry" />
        </mxCell>
        <mxCell id="rkN8ecLvOj-APzGdif4w-17" value="1" style="edgeLabel;resizable=0;html=1;align=left;verticalAlign=bottom;" connectable="0" vertex="1" parent="rkN8ecLvOj-APzGdif4w-15">
          <mxGeometry x="-1" relative="1" as="geometry">
            <mxPoint y="24" as="offset" />
          </mxGeometry>
        </mxCell>
        <mxCell id="rkN8ecLvOj-APzGdif4w-18" value="1" style="edgeLabel;resizable=0;html=1;align=right;verticalAlign=bottom;" connectable="0" vertex="1" parent="rkN8ecLvOj-APzGdif4w-15">
          <mxGeometry x="1" relative="1" as="geometry" />
        </mxCell>
        <mxCell id="rkN8ecLvOj-APzGdif4w-19" value="" style="shape=image;verticalLabelPosition=bottom;labelBackgroundColor=default;verticalAlign=top;aspect=fixed;imageAspect=0;image=data:image/png,iVBORw0KGgoAAAANSUhEUgAAAMwAAAFdCAYAAABPb4KgAAAgAElEQVR4Ae2df2wd1bXvj/ijQlVVUfWvqv8UVFWVWgG9FX19EF6iSG4RKilcWpXSQimBEErgXUwfBZUfj5S8C6TBF8gtDglpMEmISQLlvqYFzI9AmzSElPxOSOIkdpzYTuz4t499jpOsq7Vn9szee2aOZ47Pr5n5Wlo6PjN79sxZsz57rb1n7zUZwh80AA2E1kAmdEkUhAagAQIwMAJoIIIGAEwEZaEoNABgYAPQQAQNAJgIykJRaADAwAaggQgaADARlIWi0ACAgQ1AAxE0AGAiKAtFoQEAAxuABiJoAMBEUBaKQgMlB6arq4vWrVtHv/nNb6i+vp5uvPFGmjlzJgQ6qIgNsL2x3bGsXr2a2tvbS0p5yYA5dOiQgIQv+LnnnqPNmzfTtm3bqKO9lUYGTijSSSMDQdJFIwO2DHbRiI+MDnZTYTlJo0NBcopGh/wlO9RD2eFC0kvZ4SA5TdmRYBkb6aNg6aex0UIyQGOjBSQ7QGPZQUfGs4OkyxCNZwNkbJjGC8oIjY+5khsbISHjI5QbH51EspQb95FclnK5MU3yuTHyyjjlc4bkxynvSI7yea90dXUKu2PbW7JkCd1yyy00Z84c2rFjR0nAKQkwK1asoNtvv11AMtR3jHraN9PxPevp2K5X6NiuNbY007HdzdSx+1Xq2L2WOvawrBPCZY/vZXnNltfp+L7X6cS+P1my/w06YUvn/v+izk9Z/r8tf6bOA3+mrgMbbPkLdR1k+St1H3yTug+xvGXL29Td+jadbG2x5R06eZjlXTp1+D06dYTlfVs20qmjG6nn6Ae2fEg9bSx/E9Lb/nfqbd9ky2bqPbaZTh/7hy1b6HQHy0dC+jq2Ut/xj23ZRn0ntlH/iX/a8gn1d7JsFzLQuYMGulh2WtK9iwaE7KaB7t00eHKPLXtp8OReGjzFss+Snv001POpLQdoqJfloJDh3kM0fJql1ZbDNNJ3xJajNNLP0iZktL+dRgdYjtnSQaODHZQdPE7ZwROUHWLpFDI21EVjwyzdtpyksZGTND5yypLRHhof7RWSGz1NuSxLny39lBvrp/zYgCvjg5QfH6SJ8SGayLEM2zJCE/kROpMftSVLZyZYxujsxDidPcOSsyVPZ8/m6eyZCZqYyNP+/fvp3nvvpd/97neUy+WmBM6UgBkeHhZeZfny5aKFO3n4PWrfuVrIsZ0MC4BhaABMdYA5d3aCWM6ePSPAaWlpoXnz5hHbbbF/UwKG48QPPviABk4dFF6jfecqACO8DDxMLXgYCcy5s2fo3DmGZkJ4G4amWE9TNDBLly6llStXCljad6yk9h0MC4CxwjIAU4vAnDt3Vngb9jTcrynmryhguIPPfZax0UHRJwEw6MPUYh/G9DAMDAt7moceeoi+8pWv0KOPPhqJm6KA4VCMRyG6W98hCxZ4GHT6K9vpn8hnKZvN0thYNrDTHwQMQ3PkyBG66qqr6LzzzqNLL700NDSRgeFxbR6qGzp9lNq2vwxgxEgZPEwlPcxEflTAwp33kREe9s76jpIFAUN0js6ePUv3338/ffGLX6RMJkMXXHBBKGgiA8NDyDwqdvLIRgCDYWWq9LAywzI6OkpHjx4Vw8T8rGVoaMiGRh9WLgTMuXPnaMOGDXTZZZcJYBgaDtEm+4sMDD/B54eS3MGHh8FzmEoCk8+NOLA88MAD9P3vf5+uv/56euGFF2hgYECEZ2fEMxnrOUwhYBiMwwd3Ul1dnQMMQ3PttdcWZCYyMDy6wJ3+tu1NkYHZ/Ngl2sVlMt+ihW+vEw85oz+4XEB3ZjKivjub8OBSPLxM9INL17MwLD/60Y/omWeeEV7mxz/+MfGobV9fn9WnORMOmFOdhzzAMDSF/grv9Tly1qxZNDg4GBGYR+gO27j5gkyZPv/5Ip70A5j0POnXPQvD8tJLL1F3d7d4rsJP8G+44QYBTW9vL42NjdGZMznx0NLyMtZzGDlKxn0Y/hs4dUDMbzPtkQcDgv4iA8MTKXlYLoqHab5FQnIJLXzLnRrz6i/l9m/RwpaoU2MATDqAGREdfO6zSM/CsOzdu1cMDbOX2b17Nz3++ONiou+yZcuop6fH8TTFAHP++ecH8RI9L1lkYN6cQ9NtrzL9scXGXLLHXM/zy/l0fO98mmuXnbvicev/K+6ij8Q8smX0+2kSsAzNePxu35Bs/Wy3DLccd66Uc8kWOuV/tfL39Cs+z/+qp39iLhmN9NXuXDIeOubRMPYi0rMwLPfddx9xtPOTn/yEnn32Wdq+fTstWLCAfvGLX9DatWsFZLnxMdvLRPMwbDdBf8F7Ao6IDMyLP7BDsEvoqbe8ky8dL3PFnbRFAcZxkzYwa2/VQXD2MxR2H8aERZa5cyVPvnSBkdsBTO1PvuTnLDx0/OKLL1JTUxPt2bNHwPLzn/9cbFu0aBH99Kc/FdDws0Eux0/yOSzL5cbjB8zm/ys7+tdQs89s5UBgGBQ5W/ndeTTD9jx3vmTPVm76V6cvJIB57x67zLdp0UZrtvK2Bd+2yty2UAeGPYuYsYzZytaM5dr1MDxbmb0MDyWrsKxfv15sP378OD399NP0s5/9TCwr4e9c3oWFJ2CmwMPMXaFM73/pOhuO62idM73/RVpkh2gCmKbrHYAcD2JDlpl2L21TPMyvVmJ6//DpeEzvl0PJDAvPMGHPImFh78PS0dEhoLnpppto8eLF4jt7GJ7eX0wfhu0n6C94T8ARkUOykH0Ya6RM7cO4wHz0+L9YMEybR1sdYPRO/8cL7DKZ62m973oYNyQDMLwmJh7AqH0Y9iKvvfaa8CDjY6NiPUw+nxUPLXkGSkNDA912220x78Pseo6eulz2P9RRsudp4RVyuxwl8wfmhONhMhQYkikeZsaCFc4Csm0LfkRPb9T7MAAmPsCMZUdEH2bNmjU6LHl3AdlEfkxA09bWRlzuww8/FJ6HV2TGz8OIFZeFn8PMXS5XXAYAs3+BM3rmCbecTv8fnRBNL/NtANN7kOK84pK9CXsaDrOEZxGrLl1geMXlxATvG7PLZcVSZguWuPVhlCXK7vMY6Vlm0at71Cf9QcDwEmUdmjub9JBMLlH2jJTd9qS9PBkhWZyXKHN+gPHxbMElyvywkjv7nAuAlyjHHhis6ed1/VjTX6k1/QBm/xuEJBhIgmElwtBDMr8kGAAGwCBrTISsMQAGwAAYAKN2+pGXDHnJSpeXDB4GHgYeBh4GHgaZL8uT+RIeBh4GHgYeBh4GHgYehpBbGcnIRfbLKiYjT2hI9hjNzcyiV5G9H9n7OYt/CbP3xxwYcwKmNY+sYw+AQUiGkEwPycQyZWOJ8ttz6Y75zxOAwfthyvV+mJh6GPYsl9BTbwa9UEn3MFvmf0tZOXkdreVlyvbLlLR1/bcucF6otE5NfDH7CbxQSbxUCS9Uiicw7F0un0Obd4UBppEW/vJXtGWv9QYyBmTG75ZawPAiMm3Fpf0GMl7bP+0e+hhvIKPBRCfyi/4GsvgCc8sjdCwUMMbUmBXXUebWxy1gRCIMdU2/Dcy7nPziX2k9gAEwxiv70gHMH69VQrKMCwyHZc5S5etonfqOSyeDzPW0/gDecWm95xIhWTyB2RWhD8OwXOGGZCdUD6O+FLaJw7O7aauARnkpLK/rn/a/6WPfJBi8rh8vhU3TS2FjCswasnKTTT5KJjr8IgOm24dxQjIVGA7P/IDh3GQABm9RDpmMPCi3cnXTLMk1/S9eo4daV8ylLeK14+ooWaOSSSZDc29V+jBOOMb5AP6FFr2rdPpl/jHe/h5CMoRk4bL31zYwgZ1+zCXDg0s8uNQfXAovEzSsDGAADIABMB2YfInJl0TiBTRR3w9zDB6G+o5ziiWkWcplTxPSLO3Aa8fx2vHKvnb8jJIqljNfIs3SPjcZuZxLxp/IS4a8ZMhLtkfmVjamxsj3w9jPYADMbixRxhJljJJhlAyjZBglwygZYZQMo2TU0/Y3Ib3tf6fe9k22bCZ0+tHp930HWeQ3kMmpMXjSj2HlUR5SxrAytWNYGR5mGB4GHuboRuo5+oEtH1JPGwtCsuzQCcoOdQoZG+qisWEWAANgAAyNDhyj0YEOGh3soOzgccoOMiwAxhcOv43ow8DDABg/MgK2ARgAA2AC4PDbDGAADIDxIyNgG4ABMAAmAA6/zQAGwAAYPzICtgEYAANgAuDw2wxgAAyA8SMjYBuAATAAJgAOv80ABsAAGD8yArYBGAADYALg8NvMwORyOTq+/y9CTnz6V7LkTTpxgOUtIZ0H3qLOgyxv29JCnQdZ3rHk0DvUeehdIV2H3qOuVpb3XTn8PnUf3mjLB9R92JKThz+kk0dU+RudPMryd1s20ck2S061bSZL/kGn2li20Kn2LdTjyEfUc4xlK/Ue+5h6O1TZRr0dLP+05RPqPe7K6RPb6fSJHbbspNOdO6nPkV3U18myW0h/5x7q75Kyl/q7WfbZsp/6T7oycPJTsuQADZw8QAOnDmoy2HOILGmlwZ5WGuxlOezIUO8RsuQoDZ1maXOlr42G+tptOUbD/R2GHKfh/uM00n+CRgZYOl0Z7KTRwS4aHeym0SGWk4acotEhlh4aHe6h7HCvJSO9lB05LWRspI/GRln6NRkfHSBHsoM0LmSIxsdUGabx8WHKjY/YMkq5cUvy41nK51jGbBmnfH6cJhzJ0cQES96WCeJELgM9R0VSF850aYqf7fO2TNCOoO0MzODgIO3btw8CHcTaBnp7eysDTD6fp7btTRDoINY2wHbMDsD0LiXPrQxg0FgkocEEMGjxY93iVxpCAANgAEwEGwAwEZRV6dYM56u9MBbAABh4mAg2AGAiKAstfu21+JW+JwAGwMDDRLCB1ACz5mbvk9k5S+PUYjbQk5dnKHP5bNoU4QZXugVO+vnSBczND7qt6YbZND2ToZqFZunVgKMGG4b0ArO9iTY9cnHtGiWAcRu3GgInVsAc3Lq8aCWKkEz1MBowVrgz/ZEHrbAnczE9ucEK1wRUykS76Y80KNcgj2sgLeTzCZu0/ZmraY1jBLIO99zTOfRSzpkR1y3Lqedv0s+r1dtEbQydUk/NelNHF7UfIscGmE/e/wNNn3YZzb5plmKw4RXsB4y7zTLGjAIKx+KWkavG/SDNyWTIhUYep4Z29jYFTvc8CoQOVLIOF1LRD/B4GKuce277+pTzaB5ThJxKnRtm05Ox6rOFv7eV7DfFAhgJy4UXXkjXXTOzNMCI1lcalNfI20yDk62gOE5C5HMcl1PLiHpkeWkEDF6Bc8s6HKj4OAOYyer13S/Pj89iIat5YFRYpgyMEp7o3sQwRmmwZojD2zWQfI4zywh4jBDLvg4rRAqog48rBEzIejkkU71SsYaC46xGpqaBMWGZMjBK+KIbgI/Rql6CIZASGhjbqwTVI+szPYfcHgoY03Mp1ynr2W6FkQwO+jB++om2rWaB8YOlosBoYChK1QzZBzQ2VLVMUD2OQYeoQ5Q1yk1ar3LNcoAjsMHQyzqNg3ON2C91UrPAXD9rJjEgppSsD6MZg2GM9j7RWdfCIqu1dltq6zg9vDMHBuzOuVZPAz15s3wA6X9urR/kB4wclAiqd+nVmkcxBx6kAeAzWmNQs8C8uvxheuyBWz3yl+YFbnikGX3hH17YYAKMVhql0vdxYeHzyePkkLDVV/H2GSRYbl/GrUfWoQ8Xy7rFsLDwDH7lCtQrPJB7Pr0/VFhXgChYPzULTDxump8RBys7Hr8J11/oPgGYCF7Kq0gA49VJsoEDMACmqBA3baDI3wtgpgRMsltTaST4dO8zgAEw8DARbADARFAWWlq3pU2rLgAMgIGHiWADACaCstLaquJ3u54VwAAYeJgINgBgIigLLa3b0qZVFwAGwMDDRLCBigLDJ4NAB3G3gYpl74+7onD9gJ1tILXAHDlyhFatWkVPPPEEPfPMM7Rnzx54QEQBk9pAKoF57bXX6NJLL6WLLrpIyEMPPUTZbHZSZcHLwMukDpiNGzc6oDAw99xzD2CBZwndWKYOmFmzZjnA3HHHHdTX1+dR1qeffurZBu8C75K6PkxXV5cDC3sX9jYmCNyfmT9/vme7Wa7g95Z6LYker5ysbymtwbXUZyhT31LwOrlMXWNrwTIFfwc8j0d3qfIwn3zyiQbMN77xDdq0aZOjFIaFQfr1r3/tbItqUMKQM/XUohpbayPVT8VwGcC6RmpV6gQwpW2Awt7nVAEzNDREX/va1zzQbNmyRYyUyUGAF154oShgWhvrPIYd9kYULAdgirofBXWqND5RyqUKGB46njFjhgYMQ/LVr37V2cb/syeKokSrbAvVhwm9WhupTkmsoYdVrdRYx2FUi/jMZOqork5JZsHH2WGYn4exvJtdvr6F+DtCstJ6otQAw7Dcd999tHjxYrryyisdQKRXkZ+8PzosecoLEIxQzKcVa22sp8ZWeRNNyCxgGBS3TJ7yITyMgEUN2+x+FICRui7NZyqAkbC8/PLLxB1/fmA5bdo0DZrvfOc71NzcXBwsDIYw0MmBMWHUvYANjNmZnwwYAasBWT4PD+PTYJn6j/o98cCYsLzxxht099130+bNm6mnp4e4/8JloirOUz4CMFrolFHDJhmSGSNbkwETcG4dxtK0sJ7fXQajrOVzJBoYE5bXX3/dgaXkN8XumxQePrZCMNkP4WvQjRrAlPy+lBjoxAJjwsLhGPdh2LOU66YIz6H2I8yb5eMJSgKMb0gWAJ95TfgeyR4SCUwQLCUJvQoamO1BTGjkcxjTsAVAIUMy49mOgNPp69h9H+W8YohbC/cQkpWioUwcMIcOHRKeRHbwpWcpPyyuQQpjVoeOFWOXhizyJnuGfoO8gg1EwWFlpYwNiu693OsrheGktY7EAcOALFmyRIyGVQOWtBpSWn534oDhUTCerv/8888LT1NJz5IWo0nz70wcMIODg8TQLFu2jDDrGGFYqeFOHDClVhDqA3SqDQCYgqNeMBbVWPB/itf04+ajMSjGBuBh4GEiPbgrxsiSdAyAATAAJoINpBYYpFlCSFaM50slMEizBFiKgYWPSR0wSLMEWIqFJZXAIM0SgAEwITttlUqzVGjyZdSbVYoJlOJ6nJnN/sCU4jxRf1scy6cqJCt/mqWA6f32NP7Ci8vKZ8gAxl+3xQCbKmDKnWZJGKayJkW7IT6Lx7T9AV6yFC0/gAEwRT074JnL1UuzpGaIkete3HRKMkuMMG65lsazXsa68VoZZa1NPu9frx8wWh0B5wkDdNrKpMbDMCzVTrPERmqlPZKLvfRML8KIVQ/lWZFp5QBQcwLoyQML1Kv0YcKcJ20ghP29qQBGwiJXYVYrzZIwVGG4tmErRmzlNdMB4pvoQhaU+4w9lzzOp167Dgcyc5m0HQpq5wkID8MaVZLLJR4YE5ZqpllyjdIybC3JXkAfxz1G5j4zMmHa4Zs1oOBTrwlMmPMAmMCQP9HAmLCUNc1SXu2j+HUy1f0+hh3GkAPKuC26T70AJtD4Xb353S//bYkFxoRFru+vVpolK/mFzIzpY9i+oZJRzreMemON8kq4VTgk8z+uGINK+jGJBCYIFt5e3htqeRHz1RQWLLKfwQbuZ6DWNvVYmWFGDd04RFPLiLrq5asw/Oo1BwrCnae8elIhj9f/iQOm1tMsWYbob9gSJJGCKTBVkm3wcuhZe2OAf70CMnWAwQa28HniZciVAjxxwCDNEgy9nPAkDhikWQIwACbCMCfSLAEYABMBmHIqC3UDxsSFZDBqGHU5bQDAwHuVeag9WQADGAADYCLYAICJoKxyunrUHQ9PlFpgkGYpHgZaaw1JKoFBmiXAUiyIqQMGaZYAS7Gw8HGpAwZplgAMgAnZcU9rmiU2EDEBU5mw6Uz3D6m7qRhZko5NlYdJZ5ole3azNls5Ty2NckmAvZJTzSUQBiJezBb1mDD11niZVAGTyjRLky46AzBRPGCqgOEFZOlLs6Qujfb2XwJDNQGakj9A8VD+x/idx/JuWgJDsczarVfbV+PehcFKDTByFebixYvpyiuvpIsuushXeH+UFscpKwxMLkH2GiaXY0OrRpolv5WbznWzkfqEV62N9SRzpeX98hV4jgkBjOntWhupscVfV9r11RBIqQBGwpLWNEvC+BSPoS55Fvs8xu81Yhd2e5/nmLDAFG5UahUUeV2JB8aEJY1pluTNduDg0TIlxPLzMFzWDL000IoBRlkardVVQx5E05XPdSUaGBOWtKZZ8hiBGRoFGL8KVUk8jGOAljfinALow5D+x0R6bpijOK/rL1VZE5Y0p1ny6tQIn0xg+LuWs1ntfwWFZD4dfL++j3LvRd9K9XTKPu81l89WopwrkR4mCBbeHkU50cvaLafxfKKqaZbYmxhGaV2P0pcwAfHzQHYWG0cn5jEyhFN+uwzpHC/SUq95FLHfuDan/hqFJ3HAIM2SHImTLbIb/si0St4HjvbDTaVvI0fWxDG+2f29x8jRNHme+hbD6ygDD6KMAletgyKvL3HAIM2SBAWf0shL+Zk4YJBmCaCUEhCzrsQBgzRLAMY08lJ+TxwwpVQO6gJ8pg0AmBodjTFvFL7XBrwABsCUeai9Ngy9VA0OgAEwACaCDQCYCMoqVSuFeuLrdVILDNIsxddoq9ngpBIYpFkCLMVClzpgkGYJsBQLCx+XOmCQZgnAAJiQHfdyp1mSs3Pl5EP+dGbq+l6jPYExhpMQp2J0cT42VR6m3GmWPNPV7dm5haFBix8ngFIFTEXSLBnrO8Q0eXiQxDzrSRUwvICsfGmW7DXwgcBY4VddYws11nGaoTpqbJXbWjWD0taiGGGdHvYpi8B8Qz54r1J7r9QAI1dhli3NklxxaADjhml2f0WAIg3ZC4xnNaSSisityzoe3kvqsXKfqQBGwlLWNEt+wIhlvOxJ+IbawGhAmcDw6khZ3jAC0R8yPUqB8vA4mtculadJPDAmLGVLsySBURN+a8ZvwuFC5KQc8lkn79xosc/NGBl+JM4ADyBNCaREA2PCUt40S/59GMfgbQ/jwCEM14BoUmBMDwMYXP1WRheJBcaEpWJplrSQS72JBhx+wJjZWlRvUGifWg7/T8mDTAZgIoEJgoW3T6aQqew3O+V6XSGAccI6xZOYnX5tiLqVGuuV11YAlrLeX76fiQOmmmmWSgEM3xRRj9MXUgcBLOjQf1E9d2X/TxwwSLNUWQPSvWjyz504YJBmKflGW01IEwcM0iwBmHIClThgyqks1A0YAQxGlso+spSkhgbAABgAE8EGAEwEZSWppcRvKS68BDAABh4mgg2kFhikWSquhU27Z0olMEizBFiKBT91wCDNEmApFhY+LnXAIM0SgAEwITtt5U2z5Dcb2TbOMk7NLzzh0zo/l9HX4QCaYqFJlYcpb5olAFOsEcbpuFQBU940SwAmToZf7LWmChheQFa+NEsRgDHW56uJ/vS1MMpCMmeJs5qmyX9ZtFaH7yvDEZIBmEn6MXIVZvnSLIUExuzPmCsqlSXOeholq34rn5lr8GYfRnxXV2XacKIP4+qsWFj4uFR4GAlLedMsRQFG9Rz2jRQgmdvVNEo2MApQfAM1YEwY7UaEywAYABNqSocJS/nSLIUERuYnyxhGbIRp3mXI/vVrwARknQEwpYEl8R7GhKUSaZZ8W/JA72HlGRN9mABjd8MHAOPqonQARK0zsSGZCUsl0izpfQ7lpjIMar9C6W+JYzjMCgin3BsaAhjfOvyPc+tVrlO5Luz310sigQmChbeX1xC4z2GEWsKIlffEtNRr74xRQyrxvwaWmkbJ3/DV4510tEodAkjzmgBG0XaQOGCqmWbJgtGCxtsHsVssGyBnv2LcjsE7KZYU0JxhZT3Tvw4Mn8MCS9bPISKX8Q0VAU5kcBIHDNIs+YcS5fWs6Tln4oBBmqX0GG81GoHEAYM0SwCmnCAlDphyKgt1A0YAg45v5I5vmhsOAANgAEwEGwAwEZSV5pYVvz1PuVyucpMvT5/4hCDQQZxtgBuNinmYtu1NBIEO4mwDAAYQoxGLYAMAJoKy4twy4tpL49kBDICBh4lgAwAmgrLQSpemlY6zHgEMgIGHiWADACaCsuLcMuLaS+MdAQyAgYeJYAOpAWbNzbx2/mJ6ckNwSxOmzOQtdQM9eXmGpj/SUBZD5GssV92T/7Zg3aXl2JQBk6HMzQ/6G/KG2TRdrHIsDJXHMJZeTZnLZ9Mmp5UCMB4dObqJP3CxAubg1uX+xh7ihoiW+earaXrmalrjU37TIxdT5vKLafokXshjDACm6Hvi0aXPfam1MrEB5pP3/0DTp11Gs2+aVdQNskKZBwPCpQdpDoOylL2M18NYoZqVDimjAKdvl97L9TDqfr8wSkCqrN33K6PWwd6Rv2vlGFiljjlL49+K1xok6vXEAhgJy4UXXkjXXTNzCsA0UJvHIzS520RYpgMjDFYJ4yxPpIRgnvosYNiIHeMVRu1TrwJf23aGVodBnFsN92w4HGDM690wm54EMEXZhwpFof9rHhgVlpIAYxumY8zbLQMX330M0BvC2d5IDh4EAaNA1mafI9DQZSgigLBDRvNa7DKahxFl/EPMQjcd+4r3wjUNjAlLaYBpIuElpEGrRmcaqd2iqyGP/N8BLgAYBw5h6G6YJoxVBUPCwp/q+QPKaMDYIPI16ecr3iAAU2Hd1SwwfrCUChgr/LFCJM0AVYNlAw4wWs2oqgqMvLlWOKeFgSqI+L9kYVrNAnP9rJnEgJgy5T6MbTwWKLOtzr4Mr0xgzO9+hlcMMEH1qnX5ljE8lXE9muc09mmQY1/RANUsMK8uf5gee+BWj/yleUFRP1bzJGwwwiDlyJbdUvsYKR/nec5ys9Hp1zrvfkbt3eat1/ISTqgnwy2l0y9H1Zzwa+nV7sDC9iYxghb4nAmQFGU3ZkNTs8CYFzrV7x5g1M6+NCYfYGSHXfZdvGGPBYPYL+54mZIAAAuuSURBVPpFXjhkHY6h2+cT0BQcElbqtvsp2u+Q0Ms6FLimqi8cL8Nd/TM1wMAA9BsPfRSnDwAjvQs+SxKyJB1EAANQAEoEGwAwEZSV9NYTv2/yMA3AABh4mAg2AGAiKAst8OQtcNJ1BGAADDxMBBsAMBGUlfTWE79vcg8KYAAMPEwEGwAwEZSFFnjyFjjpOqooMMP9xwkCHcTZBioKDJ8MAh3E3QYq9rqLuCsK1w/Y2QZSBcw/Nm+hx25fQw//rJnee2cjPB68fmQbSAUwu3buokUPvkJ3/c919Myjq+k///0VuufK9fTEv62mjz7aGllp8Dbp9TaJBqa9/Rg9/5QFylP3rRZeZe/evcSy8f0PqeGR1TTvf/yJ/uPhVXTo0CGAA48zqQ0kEpj+/n5qWrKW7rlyHT1662r68xtvCkgkLOpny1vv0YK7LKheaGim7u7uSZU2qYdpqdfyhfECs/qW0rfKrY119nnqqSXfSo11GcrUNVIrDH/q9zBAh4kEhiFgz/GbWc0FYZHgvPXXd+i3P31FHMNwTQpEgDL5uJZ6TvrHBqwA0tpI9Y2tU6rXc00CSuM86jnxf2n1beszkcCw0S95eo3or3C/5dFfvELNq/5Eu3bt1jzN+ub/Et6F4Xr6t6vo+YWvCMA8xhnS+ESLX6kWnoGp1LlC/v5i9Ran4xILzNJnm6mrq4t27txJSxqa6d9mrqcHr3uFXlqyllYuX08P32h1/HkA4OOPt4myfEzxHqaF6kOGXm4oZaWgrdO8jxVa8TbLW3nLmMdn6lsob4dkbl2ynhYrVMvUUWOruY3r5u15yrc2Up3MD2B6SADjeKvEA8PQsLS2ttLKZevp/1yzluq/v46W/2Et7du3X+yTZaYEjDC4yUMkb8hmgWYautbvEeGXbdjSeD0eRsIgQz/ruwOEOM67zfKKdVTneCuzHiW0lOdO8WdqgJFQrFq+nljkd/VzSsCE6VMIqAzDZ+PTjrWNWngNaazWNm3gICwwPvW4cLqeRa27oqFlzOADMLYHYnDKDowGhoRBGq0Eya+F99kWEhgNDk/YxtfAHk6e274mT93KtcbMwEvdPwIwpQLG7gOoLbXnZgEYpy/g0U1MQAQwpQJGDik7fQGfVrlQSOYc5+NN/DyDxwuYx5nf+Xr8tsHDRIE3scDwEHFbW5unrxLUh+no6JjysLIV3vg8PFSew4hOvwMHG7E5uuZn1D7bAExVvFUigeHRL54z9vRvV9PaV94Q015k594EhqF6Y/0GarDL79i+Y8o3Qh0OFmlkjWFac78exvnA4ecZAMyU71MUzyLLJhIY/nEjIyP0/rsf0OL/t5oW3r9ajIxt375DfDI0/JT/1VV/Evuenb+aeHZAX19fVW6CvBn49Alja6xvk1hgVOPjGcnLnmsmnoDJXqfhYQui53+/hv7+4SYaGxsDKDVmmOr9q6X/UwGMVDiHaqv+uJ5eXraeShF6yXrxWfueoVT3KFXAlEppqCc9gJj3GsAgFEE4GsEGAEwEZZmtDb6nz9MAGAADDxPBBgBMBGXBo6TPo5j3HMAAGHiYCDaQKmCQZgkewvQYUb+nAhikWQIoUcEIKp9oYJBmCaAEGX6x2xMJTLXSLJmTKrVlxhHi5GJvJo4rfwORSGCqlWZJAKMuCQ6zqAwgxWrQIZHAVCvNkgeYfJ6wPr78rX4lPWtigeH1+bwGpnJpluwkfqqHMYGxPY61RiZDVnoky6D8YLNSH02eiaaSBpP2cyUeGLlwrOxpluQSZQMYFYTWxnorB5gIw4yVlj7r/YV3MupLu8FW+/enBhgJjrniUm7nzylljfEDRkBgZGRR+iwMk5vVxQDIXmWpr8ZMVnhTbeMv5vwAptRJMJzskUpWSQMSJyTLqMAYIZ1nCTJgKcbAS30MgCk1MIEhlOVBzH6L62Hs/GR2ggzd+wCWUht+sfUBmEoB49NH8ULBCTA4hGO4gkO5Ym82jpt6w5NYYKqRZknt4HuM08xJJgDSQzI+hjv6dXV1yMyvhLEeXVZxXyKBqVaapYLAyCFm2cepbxHZ+bWQjA0BDztr+kFmIoHhFim2aZYEMHj2UkteRb2WxAKj/sj4pFmykvipAwPq78D/U++DTFWHqQBGKqmW0yyJcI7DtcBRtuobi9Rjmj9TBUyabzR+e2kaHABTxREXGHFpjLiSegQwAKamR6UqCUOYcwEYAANgItgAgImgrDAtEMrEL8yKcs8ADICBh4lgAwAmgrKitEQom0xPkypgkJcsmUZcycYpFcAgLxlAKRVUiQamGnnJnCf2yiRL62b5vbvSNGR7aoz20lizTDHfy1VvMdcS72MSCUx18pL5zwNraWykVtFPCgNMvI2pVK14LdeTSGCqkpfMXO/iGUwAMLUMQthrSyQw1clLZiaxML2FC4watunrYdwy1g10v6vHZLSQLVqZQvXq12Jdv3beoDU8nsbB/O3J+Z5YYKqRl0ykRTISW7gtl2XYWvpYT1YZ1/hVw9aOsbPJuLOafeoNKOMC4XOM51rspBwqnAGrRN3fmBwwgn5T4oGRaZQqkZdMKNleMclG7hooG5JtpNr0fX9A3OP8jslTXhiuXGQWvkzheq16nLROASEmexy3nuQDYoKTGmAkOOXMS6Yp126NTU+gG1s4YPRj5DJmmSTDrMM2Ys3gzTLmdxdo51walC4YAGYmqWmy5P8U8JcJ2B64mYnUDKkC8S73YWRIJkGRnxUDhn9nQaP1MVLbCzlG6/muwqB7GPeYMGUATLE2CQ9TwjRL3pugDgSEMFIPIH7H2CGZ07copozfMcY2DXbpYYwyFWj8vDqV11KdTwBTKmDYwLT+iZ25P1PIE5gG6P89o+UosyB0PYp1TJgy5jHudza+gHM7YMrfgz6MDMPUz6AQKzYhWeXzklmGrCoxaPjXbTX9jdQ1ZLm/hRrrOPWsJe5+1dDDlGm1w2NZr/yu1uPdpp4XfZgE9mGqlZfMBaFU4YKfYZt1hyljHlPsd+tczkgaQjKnEYu1h2HDjW1eMs0Iw8AQpkyxgOjHWc+ZZIip7yt9Y1Gb9SeyD2PevPjkJTONJAwMYcqY9Yb5btUrwzHxqfRnTB2n5XsqgJE3s5bzkslrxGcYmKtXJlXAwBirZ2hJ0T2A0foMMKikGHa5fkfZgbnqqqtodHSUJiYmINBBrG0gl8tR2YG58cYbqaOjo+LTY8rVwqDedHvhsgNTX19P27ZtAzAI/WJvA9zwf+9733OevagjiCV7DtPQ0ECvv/567JUFz5Juz8L3f/PmzTR9+vTyArN161a6//77AQw8TOxtYNGiRfTlL3+5vMBwR4n7Md3d3bFXGLxMer0Mzxz5wQ9+QJ/5zGfKCwzHduvWraPnnnsOwMDLxNYGmpub6ZJLLvGFhfsyQX/Be4KOsLfPmzePdu7cGVuFwbuk17twZ58fj5x33nmVA4ZXPDI0CM3Sa3hxbHQ4FLvhhhvoc5/7XCAsF1xwQaC7KNrDcI07duygu+66iw4fPgxPg/Cs5m2gr6+P7r33XvrSl74UCAuHYwxU0N+UgOFK29vbhad5+eWXxRT8OLY6uObke8kNGzbQNddcQ5///OcLwnL++ecHsSK2TxkYrmV4eJiWLl1Kt9xyCy1fvpz2799f860NIEk+JBz5cOee7fKyyy4LHBEL88BSUlQSYGRl3K9ZsWIF/fCHPxRzdPhC2QVCoINK2sDtt98u7K+uro6++c1v0mc/+9mCXkUC893vfleacuBnSYFRz8In5wv9whe+AIEOKmoDhTr0Eg7z8+tf/7pqvoH/lw0YPuPcuXNDkW1ePL67CTKgi/Lr4tprrw0ExNxRVmDkydjb4MaX/8ZDx9F0HNarSDvmz4oAo55wxowZxIKbG+3mQl9T1xc33Gx7U/mrODBTuVgcCw1UWwMAptp3AOePlQYATKxuFy622hoAMNW+Azh/rDQAYGJ1u3Cx1dYAgKn2HcD5Y6UBABOr24WLrbYG/hvsRPNBfMg7DwAAAABJRU5ErkJggg==;" vertex="1" parent="1">
          <mxGeometry x="50" y="-30" width="204" height="349" as="geometry" />
        </mxCell>
        <mxCell id="rkN8ecLvOj-APzGdif4w-23" value="" style="endArrow=classic;html=1;rounded=0;exitX=1;exitY=0.5;exitDx=0;exitDy=0;" edge="1" parent="1" source="rkN8ecLvOj-APzGdif4w-4" target="rkN8ecLvOj-APzGdif4w-5">
          <mxGeometry relative="1" as="geometry">
            <mxPoint x="690" y="-490" as="sourcePoint" />
            <mxPoint x="690" y="-388" as="targetPoint" />
          </mxGeometry>
        </mxCell>
        <mxCell id="rkN8ecLvOj-APzGdif4w-24" value="Belongs" style="edgeLabel;resizable=0;html=1;align=center;verticalAlign=middle;" connectable="0" vertex="1" parent="rkN8ecLvOj-APzGdif4w-23">
          <mxGeometry relative="1" as="geometry" />
        </mxCell>
        <mxCell id="rkN8ecLvOj-APzGdif4w-25" value="1" style="edgeLabel;resizable=0;html=1;align=left;verticalAlign=bottom;" connectable="0" vertex="1" parent="rkN8ecLvOj-APzGdif4w-23">
          <mxGeometry x="-1" relative="1" as="geometry">
            <mxPoint y="24" as="offset" />
          </mxGeometry>
        </mxCell>
        <mxCell id="rkN8ecLvOj-APzGdif4w-26" value="1" style="edgeLabel;resizable=0;html=1;align=right;verticalAlign=bottom;" connectable="0" vertex="1" parent="rkN8ecLvOj-APzGdif4w-23">
          <mxGeometry x="1" relative="1" as="geometry" />
        </mxCell>
      </root>
    </mxGraphModel>
  </diagram>
</mxfile>
